<svg width="84" height="84" viewBox="0 0 84 84" fill="none" xmlns="http://www.w3.org/2000/svg">
<circle cx="41.6141" cy="42.3402" r="32.5" transform="rotate(-19.7919 41.6141 42.3402)" fill="#29C1E7"/>
<g clip-path="url(#clip0)">
<path d="M54.1152 54.0073H29.1152V54.8407H54.1152V54.0073Z" fill="white"/>
<path d="M30.7825 53.1742H34.9492C35.1793 53.1742 35.3658 52.9876 35.3658 52.7575V45.2575C35.3658 45.0274 35.1793 44.8408 34.9492 44.8408H30.7825C30.5524 44.8408 30.3658 45.0274 30.3658 45.2575V52.7575C30.3658 52.9876 30.5524 53.1742 30.7825 53.1742ZM31.1992 45.6742H34.5325V52.3408H31.1992V45.6742Z" fill="white"/>
<path d="M42.4479 53.1742H46.6145C46.8446 53.1742 47.0312 52.9876 47.0312 52.7575V40.2575C47.0312 40.0274 46.8446 39.8408 46.6145 39.8408H42.4479C42.2178 39.8408 42.0312 40.0274 42.0312 40.2575V52.7575C42.0312 52.9876 42.2178 53.1742 42.4479 53.1742ZM42.8645 40.6742H46.1979V52.3408H42.8645V40.6742Z" fill="white"/>
<path d="M36.6148 53.1742H40.7815C41.0116 53.1742 41.1981 52.9876 41.1981 52.7575V35.2575C41.1981 35.0274 41.0116 34.8408 40.7815 34.8408H36.6148C36.3847 34.8408 36.1981 35.0274 36.1981 35.2575V52.7575C36.1981 52.9876 36.3847 53.1742 36.6148 53.1742ZM37.0315 35.6742H40.3648V52.3408H37.0315V35.6742Z" fill="white"/>
<path d="M48.2819 53.1742H52.4486C52.6787 53.1742 52.8652 52.9876 52.8652 52.7575V30.2575C52.8652 30.0274 52.6787 29.8408 52.4486 29.8408H48.2819C48.0518 29.8408 47.8652 30.0274 47.8652 30.2575V52.7575C47.8652 52.9876 48.0518 53.1742 48.2819 53.1742ZM48.6986 30.6742H52.0319V52.3408H48.6986V30.6742Z" fill="white"/>
</g>
<defs>
<clipPath id="clip0">
<rect width="25" height="25" fill="white" transform="translate(29.1152 29.8408)"/>
</clipPath>
</defs>
</svg>
