<svg width="316" height="316" viewBox="0 0 316 316" fill="none" xmlns="http://www.w3.org/2000/svg">
<g filter="url(#filter0_d)">
<circle r="128.513" transform="matrix(-0.999999 0.0014252 0.0014252 0.999999 156.001 137.968)" fill="#BDF2FF"/>
<circle r="128.513" transform="matrix(-0.999999 0.0014252 0.0014252 0.999999 156.001 137.968)" fill="url(#paint0_linear)"/>
<circle r="128.513" transform="matrix(-0.999999 0.0014252 0.0014252 0.999999 156.001 137.968)" fill="url(#paint1_radial)"/>
</g>
<path d="M46.0606 135.968V124.544H54.6366V135.968H53.2126V125.808H47.5006V135.968H46.0606ZM65.0277 131.664C65.0277 133.082 64.665 134.181 63.9397 134.96C63.225 135.738 62.2544 136.128 61.0277 136.128C60.2704 136.128 59.593 135.957 58.9957 135.616C58.409 135.264 57.945 134.757 57.6037 134.096C57.2624 133.424 57.0917 132.613 57.0917 131.664C57.0917 130.245 57.449 129.152 58.1637 128.384C58.8784 127.616 59.849 127.232 61.0757 127.232C61.8544 127.232 62.537 127.408 63.1237 127.76C63.721 128.101 64.185 128.602 64.5157 129.264C64.857 129.914 65.0277 130.714 65.0277 131.664ZM58.5477 131.664C58.5477 132.677 58.745 133.482 59.1397 134.08C59.545 134.666 60.185 134.96 61.0597 134.96C61.9237 134.96 62.5584 134.666 62.9637 134.08C63.369 133.482 63.5717 132.677 63.5717 131.664C63.5717 130.65 63.369 129.856 62.9637 129.28C62.5584 128.704 61.9184 128.416 61.0437 128.416C60.169 128.416 59.5344 128.704 59.1397 129.28C58.745 129.856 58.5477 130.65 58.5477 131.664ZM74.1552 129.552C74.1552 130.085 73.9952 130.501 73.6752 130.8C73.3552 131.098 72.9445 131.301 72.4432 131.408V131.472C72.9765 131.546 73.4405 131.738 73.8352 132.048C74.2299 132.346 74.4272 132.816 74.4272 133.456C74.4272 134.181 74.1552 134.784 73.6112 135.264C73.0779 135.733 72.1925 135.968 70.9552 135.968H67.2592V127.392H70.9392C71.5472 127.392 72.0912 127.461 72.5712 127.6C73.0619 127.728 73.4459 127.952 73.7232 128.272C74.0112 128.581 74.1552 129.008 74.1552 129.552ZM72.7312 129.728C72.7312 129.322 72.5819 129.029 72.2832 128.848C71.9952 128.656 71.5205 128.56 70.8592 128.56H68.6672V130.912H70.6032C72.0219 130.912 72.7312 130.517 72.7312 129.728ZM72.9712 133.456C72.9712 132.965 72.7845 132.613 72.4112 132.4C72.0379 132.186 71.4885 132.08 70.7632 132.08H68.6672V134.832H70.7952C71.4992 134.832 72.0379 134.73 72.4112 134.528C72.7845 134.314 72.9712 133.957 72.9712 133.456ZM76.478 135.968V127.392H77.886V130.912H80.11C81.2193 130.912 82.0406 131.114 82.574 131.52C83.1073 131.925 83.374 132.533 83.374 133.344C83.374 134.144 83.1126 134.784 82.59 135.264C82.0673 135.733 81.2193 135.968 80.046 135.968H76.478ZM84.798 135.968V127.392H86.206V135.968H84.798ZM79.918 134.832C80.526 134.832 81.022 134.73 81.406 134.528C81.79 134.314 81.982 133.946 81.982 133.424C81.982 132.901 81.806 132.549 81.454 132.368C81.102 132.176 80.5953 132.08 79.934 132.08H77.886V134.832H79.918ZM100.563 127.392V135.968H88.9311V127.392H90.3391V134.784H94.0351V127.392H95.4431V134.784H99.1551V127.392H100.563ZM106.554 127.248C107.599 127.248 108.373 127.477 108.874 127.936C109.375 128.394 109.626 129.125 109.626 130.128V135.968H108.602L108.33 134.752H108.266C107.893 135.221 107.498 135.568 107.082 135.792C106.677 136.016 106.111 136.128 105.386 136.128C104.607 136.128 103.962 135.925 103.45 135.52C102.938 135.104 102.682 134.458 102.682 133.584C102.682 132.73 103.018 132.074 103.69 131.616C104.362 131.146 105.397 130.89 106.794 130.848L108.25 130.8V130.288C108.25 129.573 108.095 129.077 107.786 128.8C107.477 128.522 107.039 128.384 106.474 128.384C106.026 128.384 105.599 128.453 105.194 128.592C104.789 128.72 104.41 128.869 104.058 129.04L103.626 127.984C103.999 127.781 104.442 127.61 104.954 127.472C105.466 127.322 105.999 127.248 106.554 127.248ZM106.97 131.824C105.903 131.866 105.162 132.037 104.746 132.336C104.341 132.634 104.138 133.056 104.138 133.6C104.138 134.08 104.282 134.432 104.57 134.656C104.869 134.88 105.247 134.992 105.706 134.992C106.431 134.992 107.034 134.794 107.514 134.4C107.994 133.994 108.234 133.376 108.234 132.544V131.776L106.97 131.824ZM115.587 127.232C116.323 127.232 116.952 127.392 117.475 127.712C118.008 128.032 118.413 128.485 118.691 129.072C118.979 129.648 119.123 130.325 119.123 131.104V131.952H113.251C113.272 132.922 113.517 133.664 113.987 134.176C114.467 134.677 115.133 134.928 115.987 134.928C116.531 134.928 117.011 134.88 117.427 134.784C117.853 134.677 118.291 134.528 118.739 134.336V135.568C118.301 135.76 117.869 135.898 117.443 135.984C117.016 136.08 116.509 136.128 115.923 136.128C115.112 136.128 114.392 135.962 113.763 135.632C113.144 135.301 112.659 134.81 112.307 134.16C111.965 133.498 111.795 132.693 111.795 131.744C111.795 130.805 111.949 130 112.259 129.328C112.579 128.656 113.021 128.138 113.587 127.776C114.163 127.413 114.829 127.232 115.587 127.232ZM115.571 128.384C114.899 128.384 114.365 128.602 113.971 129.04C113.587 129.466 113.357 130.064 113.283 130.832H117.651C117.64 130.106 117.469 129.52 117.139 129.072C116.808 128.613 116.285 128.384 115.571 128.384ZM127.226 128.576H124.426V135.968H123.034V128.576H120.266V127.392H127.226V128.576ZM132.199 136.128C131.442 136.128 130.765 135.973 130.167 135.664C129.581 135.354 129.117 134.874 128.775 134.224C128.445 133.573 128.279 132.741 128.279 131.728C128.279 130.672 128.455 129.813 128.807 129.152C129.159 128.49 129.634 128.005 130.231 127.696C130.839 127.386 131.527 127.232 132.295 127.232C132.733 127.232 133.154 127.28 133.559 127.376C133.965 127.461 134.295 127.568 134.551 127.696L134.119 128.864C133.863 128.768 133.565 128.677 133.223 128.592C132.882 128.506 132.562 128.464 132.263 128.464C130.578 128.464 129.735 129.546 129.735 131.712C129.735 132.746 129.938 133.541 130.343 134.096C130.759 134.64 131.373 134.912 132.183 134.912C132.653 134.912 133.063 134.864 133.415 134.768C133.778 134.672 134.109 134.554 134.407 134.416V135.664C134.119 135.813 133.799 135.925 133.447 136C133.106 136.085 132.69 136.128 132.199 136.128ZM136.975 135.968H135.343L137.791 132.368C137.46 132.282 137.14 132.149 136.831 131.968C136.521 131.776 136.271 131.514 136.079 131.184C135.887 130.842 135.791 130.421 135.791 129.92C135.791 129.098 136.068 128.474 136.623 128.048C137.177 127.61 137.913 127.392 138.831 127.392H142.671V135.968H141.263V132.56H139.183L136.975 135.968ZM137.151 129.936C137.151 130.426 137.332 130.794 137.695 131.04C138.068 131.274 138.585 131.392 139.247 131.392H141.263V128.56H138.975C138.324 128.56 137.855 128.688 137.567 128.944C137.289 129.2 137.151 129.53 137.151 129.936ZM149.854 136.128C149.363 136.128 148.937 136.085 148.574 136C148.222 135.925 147.891 135.813 147.582 135.664V134.448C147.902 134.576 148.249 134.688 148.622 134.784C148.995 134.88 149.417 134.928 149.886 134.928C150.718 134.928 151.379 134.704 151.87 134.256C152.361 133.808 152.633 133.098 152.686 132.128H148.462V130.976H152.67C152.595 130.101 152.345 129.461 151.918 129.056C151.502 128.65 150.889 128.448 150.078 128.448C149.769 128.448 149.427 128.49 149.054 128.576C148.691 128.661 148.366 128.757 148.078 128.864L147.678 127.728C147.987 127.589 148.355 127.472 148.782 127.376C149.209 127.28 149.635 127.232 150.062 127.232C150.862 127.232 151.566 127.381 152.174 127.68C152.793 127.978 153.273 128.453 153.614 129.104C153.966 129.754 154.142 130.613 154.142 131.68C154.142 132.693 153.955 133.53 153.582 134.192C153.219 134.853 152.713 135.344 152.062 135.664C151.422 135.973 150.686 136.128 149.854 136.128ZM161.504 127.264C162.358 127.338 163.099 127.562 163.728 127.936C164.368 128.309 164.864 128.81 165.216 129.44C165.568 130.069 165.744 130.816 165.744 131.68C165.744 132.97 165.366 134 164.608 134.768C163.862 135.536 162.827 135.978 161.504 136.096V139.808H160.128V136.096C159.286 136.021 158.544 135.802 157.904 135.44C157.264 135.066 156.768 134.565 156.416 133.936C156.064 133.296 155.888 132.544 155.888 131.68C155.888 130.378 156.262 129.344 157.008 128.576C157.766 127.808 158.822 127.37 160.176 127.264V123.808H161.504V127.264ZM160.176 128.432C159.195 128.528 158.48 128.853 158.032 129.408C157.584 129.952 157.36 130.709 157.36 131.68C157.36 132.65 157.584 133.413 158.032 133.968C158.491 134.522 159.206 134.848 160.176 134.944V128.432ZM161.504 134.944C162.464 134.837 163.168 134.506 163.616 133.952C164.064 133.397 164.288 132.64 164.288 131.68C164.288 130.72 164.059 129.968 163.6 129.424C163.152 128.88 162.454 128.554 161.504 128.448V134.944ZM173.098 127.264C173.951 127.338 174.693 127.562 175.322 127.936C175.962 128.309 176.458 128.81 176.81 129.44C177.162 130.069 177.338 130.816 177.338 131.68C177.338 132.97 176.959 134 176.202 134.768C175.455 135.536 174.421 135.978 173.098 136.096V139.808H171.722V136.096C170.879 136.021 170.138 135.802 169.498 135.44C168.858 135.066 168.362 134.565 168.01 133.936C167.658 133.296 167.482 132.544 167.482 131.68C167.482 130.378 167.855 129.344 168.602 128.576C169.359 127.808 170.415 127.37 171.77 127.264V123.808H173.098V127.264ZM171.77 128.432C170.789 128.528 170.074 128.853 169.626 129.408C169.178 129.952 168.954 130.709 168.954 131.68C168.954 132.65 169.178 133.413 169.626 133.968C170.085 134.522 170.799 134.848 171.77 134.944V128.432ZM173.098 134.944C174.058 134.837 174.762 134.506 175.21 133.952C175.658 133.397 175.882 132.64 175.882 131.68C175.882 130.72 175.653 129.968 175.194 129.424C174.746 128.88 174.047 128.554 173.098 128.448V134.944ZM182.884 127.232C183.62 127.232 184.249 127.392 184.772 127.712C185.305 128.032 185.71 128.485 185.988 129.072C186.276 129.648 186.42 130.325 186.42 131.104V131.952H180.548C180.569 132.922 180.814 133.664 181.284 134.176C181.764 134.677 182.43 134.928 183.284 134.928C183.828 134.928 184.308 134.88 184.724 134.784C185.15 134.677 185.588 134.528 186.036 134.336V135.568C185.598 135.76 185.166 135.898 184.74 135.984C184.313 136.08 183.806 136.128 183.22 136.128C182.409 136.128 181.689 135.962 181.06 135.632C180.441 135.301 179.956 134.81 179.604 134.16C179.262 133.498 179.092 132.693 179.092 131.744C179.092 130.805 179.246 130 179.556 129.328C179.876 128.656 180.318 128.138 180.884 127.776C181.46 127.413 182.126 127.232 182.884 127.232ZM182.868 128.384C182.196 128.384 181.662 128.602 181.268 129.04C180.884 129.466 180.654 130.064 180.58 130.832H184.948C184.937 130.106 184.766 129.52 184.436 129.072C184.105 128.613 183.582 128.384 182.868 128.384ZM193.675 127.392H195.211L191.547 131.52L195.515 135.968H193.883L190.011 131.616V135.968H188.603V127.392H190.011V131.552L193.675 127.392ZM202.992 128.576H200.192V135.968H198.8V128.576H196.032V127.392H202.992V128.576ZM206.009 132.624C206.009 132.752 206.004 132.944 205.993 133.2C205.982 133.456 205.966 133.712 205.945 133.968C205.934 134.224 205.924 134.426 205.913 134.576L210.505 127.392H212.233V135.968H210.921V130.912C210.921 130.741 210.921 130.517 210.921 130.24C210.932 129.962 210.942 129.69 210.953 129.424C210.964 129.146 210.974 128.938 210.985 128.8L206.425 135.968H204.681V127.392H206.009V132.624ZM221.858 129.552C221.858 130.085 221.698 130.501 221.378 130.8C221.058 131.098 220.648 131.301 220.146 131.408V131.472C220.68 131.546 221.144 131.738 221.538 132.048C221.933 132.346 222.13 132.816 222.13 133.456C222.13 134.181 221.858 134.784 221.314 135.264C220.781 135.733 219.896 135.968 218.658 135.968H214.962V127.392H218.642C219.25 127.392 219.794 127.461 220.274 127.6C220.765 127.728 221.149 127.952 221.426 128.272C221.714 128.581 221.858 129.008 221.858 129.552ZM220.434 129.728C220.434 129.322 220.285 129.029 219.986 128.848C219.698 128.656 219.224 128.56 218.562 128.56H216.37V130.912H218.306C219.725 130.912 220.434 130.517 220.434 129.728ZM220.674 133.456C220.674 132.965 220.488 132.613 220.114 132.4C219.741 132.186 219.192 132.08 218.466 132.08H216.37V134.832H218.498C219.202 134.832 219.741 134.73 220.114 134.528C220.488 134.314 220.674 133.957 220.674 133.456ZM225.589 127.392V130.96H230.245V127.392H231.653V135.968H230.245V132.144H225.589V135.968H224.181V127.392H225.589ZM241.825 131.664C241.825 133.082 241.462 134.181 240.737 134.96C240.022 135.738 239.051 136.128 237.825 136.128C237.067 136.128 236.39 135.957 235.793 135.616C235.206 135.264 234.742 134.757 234.401 134.096C234.059 133.424 233.889 132.613 233.889 131.664C233.889 130.245 234.246 129.152 234.961 128.384C235.675 127.616 236.646 127.232 237.873 127.232C238.651 127.232 239.334 127.408 239.921 127.76C240.518 128.101 240.982 128.602 241.313 129.264C241.654 129.914 241.825 130.714 241.825 131.664ZM235.345 131.664C235.345 132.677 235.542 133.482 235.937 134.08C236.342 134.666 236.982 134.96 237.857 134.96C238.721 134.96 239.355 134.666 239.761 134.08C240.166 133.482 240.369 132.677 240.369 131.664C240.369 130.65 240.166 129.856 239.761 129.28C239.355 128.704 238.715 128.416 237.841 128.416C236.966 128.416 236.331 128.704 235.937 129.28C235.542 129.856 235.345 130.65 235.345 131.664ZM247.496 136.128C246.739 136.128 246.061 135.973 245.464 135.664C244.877 135.354 244.413 134.874 244.072 134.224C243.741 133.573 243.576 132.741 243.576 131.728C243.576 130.672 243.752 129.813 244.104 129.152C244.456 128.49 244.931 128.005 245.528 127.696C246.136 127.386 246.824 127.232 247.592 127.232C248.029 127.232 248.451 127.28 248.856 127.376C249.261 127.461 249.592 127.568 249.848 127.696L249.416 128.864C249.16 128.768 248.861 128.677 248.52 128.592C248.179 128.506 247.859 128.464 247.56 128.464C245.875 128.464 245.032 129.546 245.032 131.712C245.032 132.746 245.235 133.541 245.64 134.096C246.056 134.64 246.669 134.912 247.48 134.912C247.949 134.912 248.36 134.864 248.712 134.768C249.075 134.672 249.405 134.554 249.704 134.416V135.664C249.416 135.813 249.096 135.925 248.744 136C248.403 136.085 247.987 136.128 247.496 136.128ZM257.664 128.576H254.864V135.968H253.472V128.576H250.704V127.392H257.664V128.576ZM263.305 130.912C265.534 130.912 266.649 131.722 266.649 133.344C266.649 134.144 266.377 134.784 265.833 135.264C265.289 135.733 264.425 135.968 263.241 135.968H259.353V127.392H260.761V130.912H263.305ZM265.241 133.424C265.241 132.901 265.054 132.549 264.681 132.368C264.318 132.176 263.806 132.08 263.145 132.08H260.761V134.832H263.177C263.774 134.832 264.265 134.725 264.649 134.512C265.044 134.298 265.241 133.936 265.241 133.424ZM109.945 152.392V160.968H108.537V153.592H104.105V160.968H102.697V152.392H109.945ZM116.761 152.232C117.817 152.232 118.665 152.6 119.305 153.336C119.956 154.072 120.281 155.181 120.281 156.664C120.281 158.125 119.956 159.234 119.305 159.992C118.665 160.749 117.812 161.128 116.745 161.128C116.084 161.128 115.534 161.005 115.097 160.76C114.67 160.504 114.334 160.21 114.089 159.88H113.993C114.014 160.061 114.036 160.29 114.057 160.568C114.078 160.845 114.089 161.085 114.089 161.288V164.808H112.681V152.392H113.833L114.025 153.56H114.089C114.345 153.186 114.681 152.872 115.097 152.616C115.513 152.36 116.068 152.232 116.761 152.232ZM116.505 153.416C115.63 153.416 115.012 153.661 114.649 154.152C114.297 154.642 114.11 155.389 114.089 156.392V156.664C114.089 157.72 114.26 158.536 114.601 159.112C114.953 159.677 115.598 159.96 116.537 159.96C117.06 159.96 117.486 159.816 117.817 159.528C118.158 159.24 118.409 158.85 118.569 158.36C118.74 157.858 118.825 157.288 118.825 156.648C118.825 155.666 118.633 154.882 118.249 154.296C117.876 153.709 117.294 153.416 116.505 153.416ZM129.981 156.664C129.981 158.082 129.618 159.181 128.893 159.96C128.178 160.738 127.207 161.128 125.981 161.128C125.223 161.128 124.546 160.957 123.949 160.616C123.362 160.264 122.898 159.757 122.557 159.096C122.215 158.424 122.045 157.613 122.045 156.664C122.045 155.245 122.402 154.152 123.117 153.384C123.831 152.616 124.802 152.232 126.029 152.232C126.807 152.232 127.49 152.408 128.077 152.76C128.674 153.101 129.138 153.602 129.469 154.264C129.81 154.914 129.981 155.714 129.981 156.664ZM123.501 156.664C123.501 157.677 123.698 158.482 124.093 159.08C124.498 159.666 125.138 159.96 126.013 159.96C126.877 159.96 127.511 159.666 127.917 159.08C128.322 158.482 128.525 157.677 128.525 156.664C128.525 155.65 128.322 154.856 127.917 154.28C127.511 153.704 126.871 153.416 125.997 153.416C125.122 153.416 124.487 153.704 124.093 154.28C123.698 154.856 123.501 155.65 123.501 156.664ZM133.54 157.624C133.54 157.752 133.535 157.944 133.524 158.2C133.514 158.456 133.498 158.712 133.476 158.968C133.466 159.224 133.455 159.426 133.444 159.576L138.036 152.392H139.764V160.968H138.452V155.912C138.452 155.741 138.452 155.517 138.452 155.24C138.463 154.962 138.474 154.69 138.484 154.424C138.495 154.146 138.506 153.938 138.516 153.8L133.956 160.968H132.212V152.392H133.54V157.624ZM144.75 152.232C145.731 152.232 146.51 152.429 147.086 152.824C147.672 153.208 147.966 153.762 147.966 154.488C147.966 155.01 147.822 155.426 147.534 155.736C147.246 156.034 146.851 156.253 146.35 156.392V156.456C146.691 156.552 147.006 156.685 147.294 156.856C147.582 157.026 147.811 157.25 147.982 157.528C148.163 157.805 148.254 158.162 148.254 158.6C148.254 159.314 147.955 159.917 147.358 160.408C146.771 160.888 145.848 161.128 144.59 161.128C143.971 161.128 143.411 161.074 142.91 160.968C142.408 160.872 141.992 160.738 141.662 160.568V159.304C142.024 159.474 142.451 159.629 142.942 159.768C143.443 159.906 143.987 159.976 144.574 159.976C145.214 159.976 145.752 159.869 146.19 159.656C146.638 159.432 146.862 159.053 146.862 158.52C146.862 157.56 146.046 157.08 144.414 157.08H143.262V155.928H144.19C144.926 155.928 145.512 155.832 145.95 155.64C146.398 155.437 146.622 155.096 146.622 154.616C146.622 154.21 146.451 153.906 146.11 153.704C145.779 153.501 145.299 153.4 144.67 153.4C144.2 153.4 143.784 153.448 143.422 153.544C143.07 153.629 142.68 153.762 142.254 153.944L141.758 152.824C142.654 152.429 143.651 152.232 144.75 152.232ZM157.233 154.552C157.233 155.085 157.073 155.501 156.753 155.8C156.433 156.098 156.023 156.301 155.521 156.408V156.472C156.055 156.546 156.519 156.738 156.913 157.048C157.308 157.346 157.505 157.816 157.505 158.456C157.505 159.181 157.233 159.784 156.689 160.264C156.156 160.733 155.271 160.968 154.033 160.968H150.337V152.392H154.017C154.625 152.392 155.169 152.461 155.649 152.6C156.14 152.728 156.524 152.952 156.801 153.272C157.089 153.581 157.233 154.008 157.233 154.552ZM155.809 154.728C155.809 154.322 155.66 154.029 155.361 153.848C155.073 153.656 154.599 153.56 153.937 153.56H151.745V155.912H153.681C155.1 155.912 155.809 155.517 155.809 154.728ZM156.049 158.456C156.049 157.965 155.863 157.613 155.489 157.4C155.116 157.186 154.567 157.08 153.841 157.08H151.745V159.832H153.873C154.577 159.832 155.116 159.73 155.489 159.528C155.863 159.314 156.049 158.957 156.049 158.456ZM167.012 156.664C167.012 158.082 166.649 159.181 165.924 159.96C165.209 160.738 164.239 161.128 163.012 161.128C162.255 161.128 161.577 160.957 160.98 160.616C160.393 160.264 159.929 159.757 159.588 159.096C159.247 158.424 159.076 157.613 159.076 156.664C159.076 155.245 159.433 154.152 160.148 153.384C160.863 152.616 161.833 152.232 163.06 152.232C163.839 152.232 164.521 152.408 165.108 152.76C165.705 153.101 166.169 153.602 166.5 154.264C166.841 154.914 167.012 155.714 167.012 156.664ZM160.532 156.664C160.532 157.677 160.729 158.482 161.124 159.08C161.529 159.666 162.169 159.96 163.044 159.96C163.908 159.96 164.543 159.666 164.948 159.08C165.353 158.482 165.556 157.677 165.556 156.664C165.556 155.65 165.353 154.856 164.948 154.28C164.543 153.704 163.903 153.416 163.028 153.416C162.153 153.416 161.519 153.704 161.124 154.28C160.729 154.856 160.532 155.65 160.532 156.664ZM175.612 152.392V159.784H176.86V163.944H175.5V160.968H169.532V163.944H168.188V159.784H168.876C169.612 158.77 170.161 157.618 170.524 156.328C170.897 155.026 171.089 153.714 171.1 152.392H175.612ZM172.348 153.496C172.305 154.221 172.193 154.973 172.012 155.752C171.83 156.52 171.596 157.256 171.308 157.96C171.03 158.664 170.705 159.272 170.332 159.784H174.252V153.496H172.348ZM181.98 161.128C181.223 161.128 180.546 160.973 179.948 160.664C179.362 160.354 178.898 159.874 178.556 159.224C178.226 158.573 178.06 157.741 178.06 156.728C178.06 155.672 178.236 154.813 178.588 154.152C178.94 153.49 179.415 153.005 180.012 152.696C180.62 152.386 181.308 152.232 182.076 152.232C182.514 152.232 182.935 152.28 183.34 152.376C183.746 152.461 184.076 152.568 184.332 152.696L183.9 153.864C183.644 153.768 183.346 153.677 183.004 153.592C182.663 153.506 182.343 153.464 182.044 153.464C180.359 153.464 179.516 154.546 179.516 156.712C179.516 157.746 179.719 158.541 180.124 159.096C180.54 159.64 181.154 159.912 181.964 159.912C182.434 159.912 182.844 159.864 183.196 159.768C183.559 159.672 183.89 159.554 184.188 159.416V160.664C183.9 160.813 183.58 160.925 183.228 161C182.887 161.085 182.471 161.128 181.98 161.128ZM192.148 153.576H189.348V160.968H187.956V153.576H185.188V152.392H192.148V153.576ZM200.733 154.552C200.733 155.085 200.573 155.501 200.253 155.8C199.933 156.098 199.523 156.301 199.021 156.408V156.472C199.555 156.546 200.019 156.738 200.413 157.048C200.808 157.346 201.005 157.816 201.005 158.456C201.005 159.181 200.733 159.784 200.189 160.264C199.656 160.733 198.771 160.968 197.533 160.968H193.837V152.392H197.517C198.125 152.392 198.669 152.461 199.149 152.6C199.64 152.728 200.024 152.952 200.301 153.272C200.589 153.581 200.733 154.008 200.733 154.552ZM199.309 154.728C199.309 154.322 199.16 154.029 198.861 153.848C198.573 153.656 198.099 153.56 197.437 153.56H195.245V155.912H197.181C198.6 155.912 199.309 155.517 199.309 154.728ZM199.549 158.456C199.549 157.965 199.363 157.613 198.989 157.4C198.616 157.186 198.067 157.08 197.341 157.08H195.245V159.832H197.373C198.077 159.832 198.616 159.73 198.989 159.528C199.363 159.314 199.549 158.957 199.549 158.456ZM206.304 152.248C207.349 152.248 208.123 152.477 208.624 152.936C209.125 153.394 209.376 154.125 209.376 155.128V160.968H208.352L208.08 159.752H208.016C207.643 160.221 207.248 160.568 206.832 160.792C206.427 161.016 205.861 161.128 205.136 161.128C204.357 161.128 203.712 160.925 203.2 160.52C202.688 160.104 202.432 159.458 202.432 158.584C202.432 157.73 202.768 157.074 203.44 156.616C204.112 156.146 205.147 155.89 206.544 155.848L208 155.8V155.288C208 154.573 207.845 154.077 207.536 153.8C207.227 153.522 206.789 153.384 206.224 153.384C205.776 153.384 205.349 153.453 204.944 153.592C204.539 153.72 204.16 153.869 203.808 154.04L203.376 152.984C203.749 152.781 204.192 152.61 204.704 152.472C205.216 152.322 205.749 152.248 206.304 152.248ZM206.72 156.824C205.653 156.866 204.912 157.037 204.496 157.336C204.091 157.634 203.888 158.056 203.888 158.6C203.888 159.08 204.032 159.432 204.32 159.656C204.619 159.88 204.997 159.992 205.456 159.992C206.181 159.992 206.784 159.794 207.264 159.4C207.744 158.994 207.984 158.376 207.984 157.544V156.776L206.72 156.824Z" fill="#6F9EAA" fill-opacity="0.7"/>
<defs>
<filter id="filter0_d" x="0.304918" y="0.271973" width="315.392" height="315.392" filterUnits="userSpaceOnUse" color-interpolation-filters="sRGB">
<feFlood flood-opacity="0" result="BackgroundImageFix"/>
<feColorMatrix in="SourceAlpha" type="matrix" values="0 0 0 0 0 0 0 0 0 0 0 0 0 0 0 0 0 0 127 0" result="hardAlpha"/>
<feOffset dx="2" dy="20"/>
<feGaussianBlur stdDeviation="14.5"/>
<feColorMatrix type="matrix" values="0 0 0 0 0.0446875 0 0 0 0 0.274544 0 0 0 0 0.325 0 0 0 0.06 0"/>
<feBlend mode="normal" in2="BackgroundImageFix" result="effect1_dropShadow"/>
<feBlend mode="normal" in="SourceGraphic" in2="effect1_dropShadow" result="shape"/>
</filter>
<linearGradient id="paint0_linear" x1="37.1931" y1="38.1002" x2="226.787" y2="213.785" gradientUnits="userSpaceOnUse">
<stop stop-color="#BDF2FF" stop-opacity="0.47"/>
<stop offset="1" stop-color="#BDF2FF" stop-opacity="0"/>
</linearGradient>
<radialGradient id="paint1_radial" cx="0" cy="0" r="1" gradientUnits="userSpaceOnUse" gradientTransform="translate(96.7625 64.7099) rotate(53.9993) scale(143.527)">
<stop stop-color="#EAFBFF"/>
<stop offset="1" stop-color="#BDF2FF" stop-opacity="0"/>
</radialGradient>
</defs>
</svg>
