<svg width="369" height="369" viewBox="0 0 369 369" fill="none" xmlns="http://www.w3.org/2000/svg">
<g filter="url(#filter0_d)">
<circle r="122.994" transform="matrix(-1 -0.000175061 -0.000175061 1 182.477 164.945)" fill="#FFF5D9"/>
<circle r="122.994" transform="matrix(-1 -0.000175061 -0.000175061 1 182.477 164.945)" fill="url(#paint0_linear)"/>
<circle r="122.994" transform="matrix(-1 -0.000175061 -0.000175061 1 182.477 164.945)" fill="url(#paint1_radial)"/>
</g>
<path d="M94.6691 159.713C95.1118 159.713 95.4904 159.662 95.8051 159.561C96.1251 159.459 96.3838 159.321 96.5811 159.145C96.7838 158.963 96.9304 158.747 97.0211 158.497C97.1171 158.241 97.1651 157.961 97.1651 157.657C97.1651 157.337 97.1171 157.054 97.0211 156.809C96.9304 156.558 96.7838 156.347 96.5811 156.177C96.3838 156.001 96.1278 155.87 95.8131 155.785C95.4984 155.694 95.1198 155.649 94.6771 155.649H92.4451V159.713H94.6691ZM94.6771 154.417C95.3758 154.417 95.9784 154.494 96.4851 154.649C96.9918 154.798 97.4078 155.011 97.7331 155.289C98.0638 155.561 98.3064 155.886 98.4611 156.265C98.6211 156.643 98.7011 157.057 98.7011 157.505C98.7011 158.033 98.6104 158.51 98.4291 158.937C98.2531 159.358 97.9918 159.718 97.6451 160.017C97.3038 160.315 96.8824 160.545 96.3811 160.705C95.8798 160.865 95.3091 160.945 94.6691 160.945H90.9011V149.481H98.3091V150.705H92.4451V154.417H94.6771ZM107.298 152.841V160.945H105.874V155.441C105.874 155.334 105.88 155.219 105.89 155.097C105.901 154.974 105.914 154.851 105.93 154.729C105.882 154.835 105.834 154.934 105.786 155.025C105.738 155.115 105.688 155.198 105.634 155.273L101.722 160.593C101.664 160.678 101.589 160.761 101.498 160.841C101.413 160.915 101.317 160.953 101.21 160.953H100.346V152.849H101.778V158.353C101.778 158.454 101.773 158.566 101.762 158.689C101.752 158.806 101.738 158.926 101.722 159.049C101.77 158.947 101.818 158.854 101.866 158.769C101.914 158.678 101.962 158.595 102.01 158.521L105.922 153.201C105.981 153.115 106.056 153.035 106.146 152.961C106.237 152.881 106.336 152.841 106.442 152.841H107.298ZM109.037 153.673C109.341 153.385 109.709 153.153 110.141 152.977C110.579 152.801 111.104 152.713 111.717 152.713C112.208 152.713 112.64 152.774 113.013 152.897C113.387 153.014 113.699 153.171 113.949 153.369C114.205 153.566 114.397 153.793 114.525 154.049C114.659 154.299 114.725 154.561 114.725 154.833C114.725 154.993 114.699 155.161 114.645 155.337C114.597 155.513 114.515 155.681 114.397 155.841C114.28 156.001 114.128 156.15 113.941 156.289C113.755 156.427 113.523 156.539 113.245 156.625C113.763 156.779 114.168 157.027 114.461 157.369C114.76 157.71 114.909 158.129 114.909 158.625C114.909 158.998 114.824 159.337 114.653 159.641C114.483 159.939 114.253 160.195 113.965 160.409C113.677 160.617 113.341 160.777 112.957 160.889C112.579 161.001 112.181 161.057 111.765 161.057C111.504 161.057 111.237 161.033 110.965 160.985C110.699 160.937 110.437 160.862 110.181 160.761C109.925 160.654 109.683 160.523 109.453 160.369C109.229 160.214 109.029 160.027 108.853 159.809L109.253 159.289C109.317 159.198 109.408 159.153 109.525 159.153C109.621 159.153 109.723 159.195 109.829 159.281C109.941 159.361 110.077 159.451 110.237 159.553C110.397 159.654 110.592 159.747 110.821 159.833C111.056 159.913 111.341 159.953 111.677 159.953C111.971 159.953 112.232 159.918 112.461 159.849C112.696 159.774 112.893 159.673 113.053 159.545C113.213 159.417 113.336 159.265 113.421 159.089C113.507 158.913 113.549 158.721 113.549 158.513C113.549 158.113 113.381 157.79 113.045 157.545C112.715 157.299 112.211 157.177 111.533 157.177H110.613V156.233H111.533C111.827 156.233 112.091 156.203 112.325 156.145C112.56 156.081 112.76 155.995 112.925 155.889C113.091 155.782 113.216 155.654 113.301 155.505C113.387 155.35 113.429 155.185 113.429 155.009C113.429 154.849 113.392 154.697 113.317 154.553C113.248 154.409 113.139 154.283 112.989 154.177C112.845 154.07 112.664 153.985 112.445 153.921C112.227 153.857 111.971 153.825 111.677 153.825C111.357 153.825 111.085 153.857 110.861 153.921C110.643 153.985 110.456 154.054 110.301 154.129C110.152 154.203 110.029 154.273 109.933 154.337C109.837 154.401 109.755 154.433 109.685 154.433C109.616 154.433 109.557 154.419 109.509 154.393C109.467 154.366 109.419 154.31 109.365 154.225L109.037 153.673ZM123.489 152.841V160.945H122.057V157.153H118.169V160.945H116.737V152.841H118.169V156.073H122.057V152.841H123.489ZM131.177 156.009C131.177 155.678 131.129 155.377 131.033 155.105C130.942 154.827 130.806 154.59 130.625 154.393C130.449 154.19 130.233 154.035 129.977 153.929C129.721 153.817 129.43 153.761 129.105 153.761C128.422 153.761 127.881 153.961 127.481 154.361C127.086 154.755 126.841 155.305 126.745 156.009H131.177ZM132.329 159.809C132.153 160.022 131.942 160.209 131.697 160.369C131.451 160.523 131.187 160.651 130.905 160.753C130.627 160.854 130.339 160.929 130.041 160.977C129.742 161.03 129.446 161.057 129.153 161.057C128.593 161.057 128.075 160.963 127.601 160.777C127.131 160.585 126.723 160.307 126.377 159.945C126.035 159.577 125.769 159.123 125.577 158.585C125.385 158.046 125.289 157.427 125.289 156.729C125.289 156.163 125.374 155.635 125.545 155.145C125.721 154.654 125.971 154.23 126.297 153.873C126.622 153.51 127.019 153.227 127.489 153.025C127.958 152.817 128.486 152.713 129.073 152.713C129.558 152.713 130.006 152.795 130.417 152.961C130.833 153.121 131.19 153.355 131.489 153.665C131.793 153.969 132.03 154.347 132.201 154.801C132.371 155.249 132.457 155.761 132.457 156.337C132.457 156.561 132.433 156.71 132.385 156.785C132.337 156.859 132.246 156.897 132.113 156.897H126.697C126.713 157.409 126.782 157.854 126.905 158.233C127.033 158.611 127.209 158.929 127.433 159.185C127.657 159.435 127.923 159.625 128.233 159.753C128.542 159.875 128.889 159.937 129.273 159.937C129.63 159.937 129.937 159.897 130.193 159.817C130.454 159.731 130.678 159.641 130.865 159.545C131.051 159.449 131.206 159.361 131.329 159.281C131.457 159.195 131.566 159.153 131.657 159.153C131.774 159.153 131.865 159.198 131.929 159.289L132.329 159.809ZM139.846 154.281C139.803 154.339 139.76 154.385 139.718 154.417C139.675 154.449 139.616 154.465 139.542 154.465C139.462 154.465 139.374 154.433 139.278 154.369C139.182 154.299 139.062 154.225 138.918 154.145C138.779 154.065 138.606 153.993 138.398 153.929C138.195 153.859 137.944 153.825 137.646 153.825C137.246 153.825 136.894 153.897 136.59 154.041C136.286 154.179 136.03 154.382 135.822 154.649C135.619 154.915 135.464 155.238 135.358 155.617C135.256 155.995 135.206 156.419 135.206 156.889C135.206 157.379 135.262 157.817 135.374 158.201C135.486 158.579 135.643 158.899 135.846 159.161C136.054 159.417 136.302 159.614 136.59 159.753C136.883 159.886 137.211 159.953 137.574 159.953C137.92 159.953 138.206 159.913 138.43 159.833C138.654 159.747 138.838 159.654 138.982 159.553C139.131 159.451 139.254 159.361 139.35 159.281C139.451 159.195 139.55 159.153 139.646 159.153C139.763 159.153 139.854 159.198 139.918 159.289L140.318 159.809C140.142 160.027 139.942 160.214 139.718 160.369C139.494 160.523 139.251 160.654 138.99 160.761C138.734 160.862 138.464 160.937 138.182 160.985C137.899 161.033 137.611 161.057 137.318 161.057C136.811 161.057 136.339 160.963 135.902 160.777C135.47 160.59 135.094 160.321 134.774 159.969C134.454 159.611 134.203 159.174 134.022 158.657C133.84 158.139 133.75 157.55 133.75 156.889C133.75 156.286 133.832 155.729 133.998 155.217C134.168 154.705 134.414 154.265 134.734 153.897C135.059 153.523 135.456 153.233 135.926 153.025C136.4 152.817 136.944 152.713 137.558 152.713C138.128 152.713 138.63 152.806 139.062 152.993C139.499 153.174 139.886 153.433 140.222 153.769L139.846 154.281ZM151.58 154.281C151.537 154.339 151.495 154.385 151.452 154.417C151.409 154.449 151.351 154.465 151.276 154.465C151.196 154.465 151.108 154.433 151.012 154.369C150.916 154.299 150.796 154.225 150.652 154.145C150.513 154.065 150.34 153.993 150.132 153.929C149.929 153.859 149.679 153.825 149.38 153.825C148.98 153.825 148.628 153.897 148.324 154.041C148.02 154.179 147.764 154.382 147.556 154.649C147.353 154.915 147.199 155.238 147.092 155.617C146.991 155.995 146.94 156.419 146.94 156.889C146.94 157.379 146.996 157.817 147.108 158.201C147.22 158.579 147.377 158.899 147.58 159.161C147.788 159.417 148.036 159.614 148.324 159.753C148.617 159.886 148.945 159.953 149.308 159.953C149.655 159.953 149.94 159.913 150.164 159.833C150.388 159.747 150.572 159.654 150.716 159.553C150.865 159.451 150.988 159.361 151.084 159.281C151.185 159.195 151.284 159.153 151.38 159.153C151.497 159.153 151.588 159.198 151.652 159.289L152.052 159.809C151.876 160.027 151.676 160.214 151.452 160.369C151.228 160.523 150.985 160.654 150.724 160.761C150.468 160.862 150.199 160.937 149.916 160.985C149.633 161.033 149.345 161.057 149.052 161.057C148.545 161.057 148.073 160.963 147.636 160.777C147.204 160.59 146.828 160.321 146.508 159.969C146.188 159.611 145.937 159.174 145.756 158.657C145.575 158.139 145.484 157.55 145.484 156.889C145.484 156.286 145.567 155.729 145.732 155.217C145.903 154.705 146.148 154.265 146.468 153.897C146.793 153.523 147.191 153.233 147.66 153.025C148.135 152.817 148.679 152.713 149.292 152.713C149.863 152.713 150.364 152.806 150.796 152.993C151.233 153.174 151.62 153.433 151.956 153.769L151.58 154.281ZM160.317 153.929H157.205V160.945H155.781V153.929H152.669V152.841H160.317V153.929ZM165.988 157.297C165.332 157.318 164.772 157.371 164.308 157.457C163.85 157.537 163.474 157.643 163.18 157.777C162.892 157.91 162.682 158.067 162.548 158.249C162.42 158.43 162.356 158.633 162.356 158.857C162.356 159.07 162.391 159.254 162.46 159.409C162.53 159.563 162.623 159.691 162.74 159.793C162.863 159.889 163.004 159.961 163.164 160.009C163.33 160.051 163.506 160.073 163.692 160.073C163.943 160.073 164.172 160.049 164.38 160.001C164.588 159.947 164.783 159.873 164.964 159.777C165.151 159.681 165.327 159.566 165.492 159.433C165.663 159.299 165.828 159.147 165.988 158.977V157.297ZM161.388 153.985C161.836 153.553 162.319 153.23 162.836 153.017C163.354 152.803 163.927 152.697 164.556 152.697C165.01 152.697 165.412 152.771 165.764 152.921C166.116 153.07 166.412 153.278 166.652 153.545C166.892 153.811 167.074 154.134 167.196 154.513C167.319 154.891 167.38 155.307 167.38 155.761V160.945H166.748C166.61 160.945 166.503 160.923 166.428 160.881C166.354 160.833 166.295 160.742 166.252 160.609L166.092 159.841C165.879 160.038 165.671 160.214 165.468 160.369C165.266 160.518 165.052 160.646 164.828 160.753C164.604 160.854 164.364 160.931 164.108 160.985C163.858 161.043 163.578 161.073 163.268 161.073C162.954 161.073 162.658 161.03 162.38 160.945C162.103 160.854 161.86 160.721 161.652 160.545C161.45 160.369 161.287 160.147 161.164 159.881C161.047 159.609 160.988 159.289 160.988 158.921C160.988 158.601 161.076 158.294 161.252 158.001C161.428 157.702 161.714 157.438 162.108 157.209C162.503 156.979 163.018 156.793 163.652 156.649C164.287 156.499 165.066 156.414 165.988 156.393V155.761C165.988 155.131 165.852 154.657 165.58 154.337C165.308 154.011 164.911 153.849 164.388 153.849C164.036 153.849 163.74 153.894 163.5 153.985C163.266 154.07 163.06 154.169 162.884 154.281C162.714 154.387 162.564 154.486 162.436 154.577C162.314 154.662 162.191 154.705 162.068 154.705C161.972 154.705 161.89 154.681 161.82 154.633C161.751 154.579 161.692 154.515 161.644 154.441L161.388 153.985ZM176.301 152.841V160.945H174.869V157.153H170.981V160.945H169.549V152.841H170.981V156.073H174.869V152.841H176.301ZM181.981 152.713C182.573 152.713 183.106 152.811 183.581 153.009C184.056 153.206 184.461 153.486 184.797 153.849C185.133 154.211 185.389 154.651 185.565 155.169C185.746 155.681 185.837 156.254 185.837 156.889C185.837 157.529 185.746 158.105 185.565 158.617C185.389 159.129 185.133 159.566 184.797 159.929C184.461 160.291 184.056 160.571 183.581 160.769C183.106 160.961 182.573 161.057 181.981 161.057C181.384 161.057 180.845 160.961 180.365 160.769C179.89 160.571 179.485 160.291 179.149 159.929C178.813 159.566 178.554 159.129 178.373 158.617C178.197 158.105 178.109 157.529 178.109 156.889C178.109 156.254 178.197 155.681 178.373 155.169C178.554 154.651 178.813 154.211 179.149 153.849C179.485 153.486 179.89 153.206 180.365 153.009C180.845 152.811 181.384 152.713 181.981 152.713ZM181.981 159.945C182.781 159.945 183.378 159.678 183.773 159.145C184.168 158.606 184.365 157.857 184.365 156.897C184.365 155.931 184.168 155.179 183.773 154.641C183.378 154.102 182.781 153.833 181.981 153.833C181.576 153.833 181.221 153.902 180.917 154.041C180.618 154.179 180.368 154.379 180.165 154.641C179.968 154.902 179.818 155.225 179.717 155.609C179.621 155.987 179.573 156.417 179.573 156.897C179.573 157.857 179.77 158.606 180.165 159.145C180.565 159.678 181.17 159.945 181.981 159.945ZM190.755 159.945C191.289 159.945 191.71 159.822 192.019 159.577C192.329 159.326 192.483 158.985 192.483 158.553C192.483 158.361 192.454 158.187 192.395 158.033C192.337 157.873 192.241 157.734 192.107 157.617C191.974 157.499 191.795 157.409 191.571 157.345C191.353 157.281 191.083 157.249 190.763 157.249H189.011V159.945H190.755ZM189.011 153.801V156.345H190.571C190.806 156.345 191.022 156.313 191.219 156.249C191.422 156.179 191.595 156.086 191.739 155.969C191.883 155.846 191.995 155.702 192.075 155.537C192.155 155.366 192.195 155.179 192.195 154.977C192.195 154.827 192.169 154.683 192.115 154.545C192.062 154.401 191.971 154.275 191.843 154.169C191.715 154.057 191.547 153.969 191.339 153.905C191.131 153.835 190.875 153.801 190.571 153.801H189.011ZM190.611 152.841C191.113 152.841 191.542 152.891 191.899 152.993C192.257 153.094 192.55 153.233 192.779 153.409C193.009 153.579 193.177 153.782 193.283 154.017C193.39 154.251 193.443 154.502 193.443 154.769C193.443 154.945 193.419 155.129 193.371 155.321C193.323 155.513 193.238 155.697 193.115 155.873C192.998 156.049 192.835 156.209 192.627 156.353C192.425 156.491 192.169 156.601 191.859 156.681C192.478 156.787 192.955 157.003 193.291 157.329C193.627 157.649 193.795 158.073 193.795 158.601C193.795 158.995 193.715 159.339 193.555 159.633C193.401 159.921 193.185 160.163 192.907 160.361C192.635 160.558 192.315 160.705 191.947 160.801C191.579 160.897 191.185 160.945 190.763 160.945H187.643V152.841H190.611ZM202.533 152.841V160.945H201.109V155.441C201.109 155.334 201.114 155.219 201.125 155.097C201.135 154.974 201.149 154.851 201.165 154.729C201.117 154.835 201.069 154.934 201.021 155.025C200.973 155.115 200.922 155.198 200.869 155.273L196.957 160.593C196.898 160.678 196.823 160.761 196.733 160.841C196.647 160.915 196.551 160.953 196.445 160.953H195.581V152.849H197.013V158.353C197.013 158.454 197.007 158.566 196.997 158.689C196.986 158.806 196.973 158.926 196.957 159.049C197.005 158.947 197.053 158.854 197.101 158.769C197.149 158.678 197.197 158.595 197.245 158.521L201.157 153.201C201.215 153.115 201.29 153.035 201.381 152.961C201.471 152.881 201.57 152.841 201.677 152.841H202.533ZM211.52 153.929H208.408V160.945H206.984V153.929H203.872V152.841H211.52V153.929ZM218.189 154.281C218.147 154.339 218.104 154.385 218.061 154.417C218.019 154.449 217.96 154.465 217.885 154.465C217.805 154.465 217.717 154.433 217.621 154.369C217.525 154.299 217.405 154.225 217.261 154.145C217.123 154.065 216.949 153.993 216.741 153.929C216.539 153.859 216.288 153.825 215.989 153.825C215.589 153.825 215.237 153.897 214.933 154.041C214.629 154.179 214.373 154.382 214.165 154.649C213.963 154.915 213.808 155.238 213.701 155.617C213.6 155.995 213.549 156.419 213.549 156.889C213.549 157.379 213.605 157.817 213.717 158.201C213.829 158.579 213.987 158.899 214.189 159.161C214.397 159.417 214.645 159.614 214.933 159.753C215.227 159.886 215.555 159.953 215.917 159.953C216.264 159.953 216.549 159.913 216.773 159.833C216.997 159.747 217.181 159.654 217.325 159.553C217.475 159.451 217.597 159.361 217.693 159.281C217.795 159.195 217.893 159.153 217.989 159.153C218.107 159.153 218.197 159.198 218.261 159.289L218.661 159.809C218.485 160.027 218.285 160.214 218.061 160.369C217.837 160.523 217.595 160.654 217.333 160.761C217.077 160.862 216.808 160.937 216.525 160.985C216.243 161.033 215.955 161.057 215.661 161.057C215.155 161.057 214.683 160.963 214.245 160.777C213.813 160.59 213.437 160.321 213.117 159.969C212.797 159.611 212.547 159.174 212.365 158.657C212.184 158.139 212.093 157.55 212.093 156.889C212.093 156.286 212.176 155.729 212.341 155.217C212.512 154.705 212.757 154.265 213.077 153.897C213.403 153.523 213.8 153.233 214.269 153.025C214.744 152.817 215.288 152.713 215.901 152.713C216.472 152.713 216.973 152.806 217.405 152.993C217.843 153.174 218.229 153.433 218.565 153.769L218.189 154.281ZM224.454 156.625V153.801H223.094C222.79 153.801 222.534 153.846 222.326 153.937C222.118 154.022 221.95 154.134 221.822 154.273C221.699 154.406 221.611 154.558 221.558 154.729C221.505 154.894 221.478 155.059 221.478 155.225C221.478 155.662 221.638 156.006 221.958 156.257C222.278 156.502 222.715 156.625 223.27 156.625H224.454ZM225.814 152.841V160.945H224.454V157.529H223.83C223.681 157.529 223.555 157.542 223.454 157.569C223.358 157.59 223.273 157.622 223.198 157.665C223.129 157.707 223.067 157.763 223.014 157.833C222.961 157.897 222.905 157.971 222.846 158.057L221.07 160.449C220.979 160.619 220.867 160.745 220.734 160.825C220.606 160.905 220.417 160.945 220.166 160.945H219.174L221.526 157.889C221.718 157.569 221.971 157.355 222.286 157.249C221.875 157.195 221.529 157.099 221.246 156.961C220.963 156.822 220.731 156.659 220.55 156.473C220.374 156.281 220.246 156.07 220.166 155.841C220.086 155.611 220.046 155.379 220.046 155.145C220.046 154.867 220.099 154.59 220.206 154.313C220.318 154.035 220.494 153.79 220.734 153.577C220.974 153.358 221.283 153.182 221.662 153.049C222.046 152.91 222.51 152.841 223.054 152.841H225.814ZM235.83 160.001C236.63 160.001 237.233 159.747 237.638 159.241C238.049 158.729 238.254 158.014 238.254 157.097C238.254 156.185 238.057 155.473 237.662 154.961C237.273 154.449 236.686 154.193 235.902 154.193C235.524 154.193 235.182 154.254 234.878 154.377C234.574 154.494 234.316 154.667 234.102 154.897C233.894 155.126 233.732 155.409 233.614 155.745C233.502 156.081 233.446 156.465 233.446 156.897C233.446 157.382 233.497 157.817 233.598 158.201C233.7 158.585 233.849 158.91 234.046 159.177C234.249 159.443 234.497 159.649 234.79 159.793C235.089 159.931 235.436 160.001 235.83 160.001ZM236.382 150.937C235.838 150.985 235.372 151.105 234.982 151.297C234.598 151.489 234.278 151.75 234.022 152.081C233.766 152.406 233.574 152.798 233.446 153.257C233.318 153.715 233.244 154.233 233.222 154.809C233.35 154.553 233.516 154.323 233.718 154.121C233.921 153.913 234.153 153.737 234.414 153.593C234.676 153.443 234.958 153.331 235.262 153.257C235.572 153.177 235.9 153.137 236.246 153.137C236.785 153.137 237.268 153.233 237.694 153.425C238.126 153.611 238.492 153.878 238.79 154.225C239.094 154.571 239.326 154.99 239.486 155.481C239.646 155.966 239.726 156.505 239.726 157.097C239.726 157.699 239.633 158.246 239.446 158.737C239.265 159.222 239.004 159.638 238.662 159.985C238.321 160.326 237.91 160.59 237.43 160.777C236.956 160.963 236.422 161.057 235.83 161.057C235.286 161.057 234.777 160.966 234.302 160.785C233.828 160.603 233.417 160.305 233.07 159.889C232.724 159.473 232.449 158.926 232.246 158.249C232.049 157.566 231.95 156.726 231.95 155.729C231.95 154.875 232.028 154.091 232.182 153.377C232.337 152.662 232.585 152.041 232.926 151.513C233.273 150.985 233.718 150.561 234.262 150.241C234.812 149.915 235.478 149.718 236.262 149.649L239.158 149.401L239.238 150.137C239.254 150.302 239.23 150.441 239.166 150.553C239.102 150.665 238.988 150.726 238.822 150.737L236.382 150.937ZM244.95 152.713C245.542 152.713 246.075 152.811 246.55 153.009C247.025 153.206 247.43 153.486 247.766 153.849C248.102 154.211 248.358 154.651 248.534 155.169C248.715 155.681 248.806 156.254 248.806 156.889C248.806 157.529 248.715 158.105 248.534 158.617C248.358 159.129 248.102 159.566 247.766 159.929C247.43 160.291 247.025 160.571 246.55 160.769C246.075 160.961 245.542 161.057 244.95 161.057C244.353 161.057 243.814 160.961 243.334 160.769C242.859 160.571 242.454 160.291 242.118 159.929C241.782 159.566 241.523 159.129 241.342 158.617C241.166 158.105 241.078 157.529 241.078 156.889C241.078 156.254 241.166 155.681 241.342 155.169C241.523 154.651 241.782 154.211 242.118 153.849C242.454 153.486 242.859 153.206 243.334 153.009C243.814 152.811 244.353 152.713 244.95 152.713ZM244.95 159.945C245.75 159.945 246.347 159.678 246.742 159.145C247.137 158.606 247.334 157.857 247.334 156.897C247.334 155.931 247.137 155.179 246.742 154.641C246.347 154.102 245.75 153.833 244.95 153.833C244.545 153.833 244.19 153.902 243.886 154.041C243.587 154.179 243.337 154.379 243.134 154.641C242.937 154.902 242.787 155.225 242.686 155.609C242.59 155.987 242.542 156.417 242.542 156.897C242.542 157.857 242.739 158.606 243.134 159.145C243.534 159.678 244.139 159.945 244.95 159.945ZM257.482 160.945H256.058V153.961H253.498C253.434 154.99 253.338 155.881 253.21 156.633C253.082 157.379 252.927 158.017 252.746 158.545C252.57 159.067 252.37 159.494 252.146 159.825C251.927 160.15 251.695 160.403 251.45 160.585C251.21 160.766 250.959 160.889 250.698 160.953C250.442 161.017 250.186 161.049 249.93 161.049C249.476 161.049 249.25 160.977 249.25 160.833V159.929H249.666C249.847 159.929 250.031 159.897 250.218 159.833C250.404 159.769 250.586 159.646 250.762 159.465C250.943 159.283 251.116 159.03 251.282 158.705C251.447 158.374 251.596 157.947 251.73 157.425C251.868 156.897 251.986 156.259 252.082 155.513C252.183 154.761 252.26 153.87 252.314 152.841H257.482V160.945ZM265.161 156.009C265.161 155.678 265.113 155.377 265.017 155.105C264.926 154.827 264.79 154.59 264.609 154.393C264.433 154.19 264.217 154.035 263.961 153.929C263.705 153.817 263.414 153.761 263.089 153.761C262.406 153.761 261.865 153.961 261.465 154.361C261.07 154.755 260.825 155.305 260.729 156.009H265.161ZM266.313 159.809C266.137 160.022 265.926 160.209 265.681 160.369C265.436 160.523 265.172 160.651 264.889 160.753C264.612 160.854 264.324 160.929 264.025 160.977C263.726 161.03 263.43 161.057 263.137 161.057C262.577 161.057 262.06 160.963 261.585 160.777C261.116 160.585 260.708 160.307 260.361 159.945C260.02 159.577 259.753 159.123 259.561 158.585C259.369 158.046 259.273 157.427 259.273 156.729C259.273 156.163 259.358 155.635 259.529 155.145C259.705 154.654 259.956 154.23 260.281 153.873C260.606 153.51 261.004 153.227 261.473 153.025C261.942 152.817 262.47 152.713 263.057 152.713C263.542 152.713 263.99 152.795 264.401 152.961C264.817 153.121 265.174 153.355 265.473 153.665C265.777 153.969 266.014 154.347 266.185 154.801C266.356 155.249 266.441 155.761 266.441 156.337C266.441 156.561 266.417 156.71 266.369 156.785C266.321 156.859 266.23 156.897 266.097 156.897H260.681C260.697 157.409 260.766 157.854 260.889 158.233C261.017 158.611 261.193 158.929 261.417 159.185C261.641 159.435 261.908 159.625 262.217 159.753C262.526 159.875 262.873 159.937 263.257 159.937C263.614 159.937 263.921 159.897 264.177 159.817C264.438 159.731 264.662 159.641 264.849 159.545C265.036 159.449 265.19 159.361 265.313 159.281C265.441 159.195 265.55 159.153 265.641 159.153C265.758 159.153 265.849 159.198 265.913 159.289L266.313 159.809ZM273.614 156.009C273.614 155.678 273.566 155.377 273.47 155.105C273.379 154.827 273.243 154.59 273.062 154.393C272.886 154.19 272.67 154.035 272.414 153.929C272.158 153.817 271.867 153.761 271.542 153.761C270.859 153.761 270.318 153.961 269.918 154.361C269.523 154.755 269.278 155.305 269.182 156.009H273.614ZM274.766 159.809C274.59 160.022 274.379 160.209 274.134 160.369C273.889 160.523 273.625 160.651 273.342 160.753C273.065 160.854 272.777 160.929 272.478 160.977C272.179 161.03 271.883 161.057 271.59 161.057C271.03 161.057 270.513 160.963 270.038 160.777C269.569 160.585 269.161 160.307 268.814 159.945C268.473 159.577 268.206 159.123 268.014 158.585C267.822 158.046 267.726 157.427 267.726 156.729C267.726 156.163 267.811 155.635 267.982 155.145C268.158 154.654 268.409 154.23 268.734 153.873C269.059 153.51 269.457 153.227 269.926 153.025C270.395 152.817 270.923 152.713 271.51 152.713C271.995 152.713 272.443 152.795 272.854 152.961C273.27 153.121 273.627 153.355 273.926 153.665C274.23 153.969 274.467 154.347 274.638 154.801C274.809 155.249 274.894 155.761 274.894 156.337C274.894 156.561 274.87 156.71 274.822 156.785C274.774 156.859 274.683 156.897 274.55 156.897H269.134C269.15 157.409 269.219 157.854 269.342 158.233C269.47 158.611 269.646 158.929 269.87 159.185C270.094 159.435 270.361 159.625 270.67 159.753C270.979 159.875 271.326 159.937 271.71 159.937C272.067 159.937 272.374 159.897 272.63 159.817C272.891 159.731 273.115 159.641 273.302 159.545C273.489 159.449 273.643 159.361 273.766 159.281C273.894 159.195 274.003 159.153 274.094 159.153C274.211 159.153 274.302 159.198 274.366 159.289L274.766 159.809ZM139.635 177.841L135.115 188.337C135.067 188.443 135.006 188.529 134.931 188.593C134.862 188.657 134.753 188.689 134.603 188.689H133.547L135.027 185.473L131.683 177.841H132.915C133.038 177.841 133.134 177.873 133.203 177.937C133.278 177.995 133.329 178.062 133.355 178.137L135.523 183.241C135.609 183.465 135.681 183.699 135.739 183.945C135.814 183.694 135.894 183.457 135.979 183.233L138.083 178.137C138.115 178.051 138.169 177.982 138.243 177.929C138.323 177.87 138.411 177.841 138.507 177.841H139.635ZM147.645 185.945H146.213V178.929H142.325V185.945H140.893V177.841H147.645V185.945ZM151.341 183.993C151.602 184.345 151.888 184.593 152.197 184.737C152.506 184.881 152.853 184.953 153.237 184.953C153.994 184.953 154.576 184.683 154.981 184.145C155.386 183.606 155.589 182.838 155.589 181.841C155.589 181.313 155.541 180.859 155.445 180.481C155.354 180.102 155.221 179.793 155.045 179.553C154.869 179.307 154.653 179.129 154.397 179.017C154.141 178.905 153.85 178.849 153.525 178.849C153.061 178.849 152.653 178.955 152.301 179.169C151.954 179.382 151.634 179.683 151.341 180.073V183.993ZM151.269 179.097C151.61 178.675 152.005 178.337 152.453 178.081C152.901 177.825 153.413 177.697 153.989 177.697C154.458 177.697 154.882 177.787 155.261 177.969C155.64 178.145 155.962 178.409 156.229 178.761C156.496 179.107 156.701 179.539 156.845 180.057C156.989 180.574 157.061 181.169 157.061 181.841C157.061 182.438 156.981 182.995 156.821 183.513C156.661 184.025 156.429 184.47 156.125 184.849C155.826 185.222 155.458 185.518 155.021 185.737C154.589 185.95 154.101 186.057 153.557 186.057C153.061 186.057 152.634 185.974 152.277 185.809C151.925 185.638 151.613 185.403 151.341 185.105V188.689H149.909V177.841H150.765C150.968 177.841 151.093 177.939 151.141 178.137L151.269 179.097ZM163.254 182.297C162.598 182.318 162.038 182.371 161.574 182.457C161.115 182.537 160.739 182.643 160.446 182.777C160.158 182.91 159.947 183.067 159.814 183.249C159.686 183.43 159.622 183.633 159.622 183.857C159.622 184.07 159.657 184.254 159.726 184.409C159.795 184.563 159.889 184.691 160.006 184.793C160.129 184.889 160.27 184.961 160.43 185.009C160.595 185.051 160.771 185.073 160.958 185.073C161.209 185.073 161.438 185.049 161.646 185.001C161.854 184.947 162.049 184.873 162.23 184.777C162.417 184.681 162.593 184.566 162.758 184.433C162.929 184.299 163.094 184.147 163.254 183.977V182.297ZM158.654 178.985C159.102 178.553 159.585 178.23 160.102 178.017C160.619 177.803 161.193 177.697 161.822 177.697C162.275 177.697 162.678 177.771 163.03 177.921C163.382 178.07 163.678 178.278 163.918 178.545C164.158 178.811 164.339 179.134 164.462 179.513C164.585 179.891 164.646 180.307 164.646 180.761V185.945H164.014C163.875 185.945 163.769 185.923 163.694 185.881C163.619 185.833 163.561 185.742 163.518 185.609L163.358 184.841C163.145 185.038 162.937 185.214 162.734 185.369C162.531 185.518 162.318 185.646 162.094 185.753C161.87 185.854 161.63 185.931 161.374 185.985C161.123 186.043 160.843 186.073 160.534 186.073C160.219 186.073 159.923 186.03 159.646 185.945C159.369 185.854 159.126 185.721 158.918 185.545C158.715 185.369 158.553 185.147 158.43 184.881C158.313 184.609 158.254 184.289 158.254 183.921C158.254 183.601 158.342 183.294 158.518 183.001C158.694 182.702 158.979 182.438 159.374 182.209C159.769 181.979 160.283 181.793 160.918 181.649C161.553 181.499 162.331 181.414 163.254 181.393V180.761C163.254 180.131 163.118 179.657 162.846 179.337C162.574 179.011 162.177 178.849 161.654 178.849C161.302 178.849 161.006 178.894 160.766 178.985C160.531 179.07 160.326 179.169 160.15 179.281C159.979 179.387 159.83 179.486 159.702 179.577C159.579 179.662 159.457 179.705 159.334 179.705C159.238 179.705 159.155 179.681 159.086 179.633C159.017 179.579 158.958 179.515 158.91 179.441L158.654 178.985ZM169.927 184.945C170.46 184.945 170.882 184.822 171.191 184.577C171.5 184.326 171.655 183.985 171.655 183.553C171.655 183.361 171.626 183.187 171.567 183.033C171.508 182.873 171.412 182.734 171.279 182.617C171.146 182.499 170.967 182.409 170.743 182.345C170.524 182.281 170.255 182.249 169.935 182.249H168.183V184.945H169.927ZM168.183 178.801V181.345H169.743C169.978 181.345 170.194 181.313 170.391 181.249C170.594 181.179 170.767 181.086 170.911 180.969C171.055 180.846 171.167 180.702 171.247 180.537C171.327 180.366 171.367 180.179 171.367 179.977C171.367 179.827 171.34 179.683 171.287 179.545C171.234 179.401 171.143 179.275 171.015 179.169C170.887 179.057 170.719 178.969 170.511 178.905C170.303 178.835 170.047 178.801 169.743 178.801H168.183ZM169.783 177.841C170.284 177.841 170.714 177.891 171.071 177.993C171.428 178.094 171.722 178.233 171.951 178.409C172.18 178.579 172.348 178.782 172.455 179.017C172.562 179.251 172.615 179.502 172.615 179.769C172.615 179.945 172.591 180.129 172.543 180.321C172.495 180.513 172.41 180.697 172.287 180.873C172.17 181.049 172.007 181.209 171.799 181.353C171.596 181.491 171.34 181.601 171.031 181.681C171.65 181.787 172.127 182.003 172.463 182.329C172.799 182.649 172.967 183.073 172.967 183.601C172.967 183.995 172.887 184.339 172.727 184.633C172.572 184.921 172.356 185.163 172.079 185.361C171.807 185.558 171.487 185.705 171.119 185.801C170.751 185.897 170.356 185.945 169.935 185.945H166.815V177.841H169.783ZM181.857 185.945H180.433V178.961H177.873C177.809 179.99 177.713 180.881 177.585 181.633C177.457 182.379 177.302 183.017 177.121 183.545C176.945 184.067 176.745 184.494 176.521 184.825C176.302 185.15 176.07 185.403 175.825 185.585C175.585 185.766 175.334 185.889 175.073 185.953C174.817 186.017 174.561 186.049 174.305 186.049C173.851 186.049 173.625 185.977 173.625 185.833V184.929H174.041C174.222 184.929 174.406 184.897 174.593 184.833C174.779 184.769 174.961 184.646 175.137 184.465C175.318 184.283 175.491 184.03 175.657 183.705C175.822 183.374 175.971 182.947 176.105 182.425C176.243 181.897 176.361 181.259 176.457 180.513C176.558 179.761 176.635 178.87 176.689 177.841H181.857V185.945ZM188.376 181.625V178.801H187.016C186.712 178.801 186.456 178.846 186.248 178.937C186.04 179.022 185.872 179.134 185.744 179.273C185.621 179.406 185.533 179.558 185.48 179.729C185.427 179.894 185.4 180.059 185.4 180.225C185.4 180.662 185.56 181.006 185.88 181.257C186.2 181.502 186.637 181.625 187.192 181.625H188.376ZM189.736 177.841V185.945H188.376V182.529H187.752C187.603 182.529 187.477 182.542 187.376 182.569C187.28 182.59 187.195 182.622 187.12 182.665C187.051 182.707 186.989 182.763 186.936 182.833C186.883 182.897 186.827 182.971 186.768 183.057L184.992 185.449C184.901 185.619 184.789 185.745 184.656 185.825C184.528 185.905 184.339 185.945 184.088 185.945H183.096L185.448 182.889C185.64 182.569 185.893 182.355 186.208 182.249C185.797 182.195 185.451 182.099 185.168 181.961C184.885 181.822 184.653 181.659 184.472 181.473C184.296 181.281 184.168 181.07 184.088 180.841C184.008 180.611 183.968 180.379 183.968 180.145C183.968 179.867 184.021 179.59 184.128 179.313C184.24 179.035 184.416 178.79 184.656 178.577C184.896 178.358 185.205 178.182 185.584 178.049C185.968 177.91 186.432 177.841 186.976 177.841H189.736ZM197.427 181.009C197.427 180.678 197.379 180.377 197.283 180.105C197.192 179.827 197.056 179.59 196.875 179.393C196.699 179.19 196.483 179.035 196.227 178.929C195.971 178.817 195.68 178.761 195.355 178.761C194.672 178.761 194.131 178.961 193.731 179.361C193.336 179.755 193.091 180.305 192.995 181.009H197.427ZM198.579 184.809C198.403 185.022 198.192 185.209 197.947 185.369C197.701 185.523 197.437 185.651 197.155 185.753C196.877 185.854 196.589 185.929 196.291 185.977C195.992 186.03 195.696 186.057 195.403 186.057C194.843 186.057 194.325 185.963 193.851 185.777C193.381 185.585 192.973 185.307 192.627 184.945C192.285 184.577 192.019 184.123 191.827 183.585C191.635 183.046 191.539 182.427 191.539 181.729C191.539 181.163 191.624 180.635 191.795 180.145C191.971 179.654 192.221 179.23 192.547 178.873C192.872 178.51 193.269 178.227 193.739 178.025C194.208 177.817 194.736 177.713 195.323 177.713C195.808 177.713 196.256 177.795 196.667 177.961C197.083 178.121 197.44 178.355 197.739 178.665C198.043 178.969 198.28 179.347 198.451 179.801C198.621 180.249 198.707 180.761 198.707 181.337C198.707 181.561 198.683 181.71 198.635 181.785C198.587 181.859 198.496 181.897 198.363 181.897H192.947C192.963 182.409 193.032 182.854 193.155 183.233C193.283 183.611 193.459 183.929 193.683 184.185C193.907 184.435 194.173 184.625 194.483 184.753C194.792 184.875 195.139 184.937 195.523 184.937C195.88 184.937 196.187 184.897 196.443 184.817C196.704 184.731 196.928 184.641 197.115 184.545C197.301 184.449 197.456 184.361 197.579 184.281C197.707 184.195 197.816 184.153 197.907 184.153C198.024 184.153 198.115 184.198 198.179 184.289L198.579 184.809ZM209.488 177.817V185.945H208.2V180.561C208.2 180.411 208.208 180.246 208.224 180.065C208.245 179.878 208.272 179.705 208.304 179.545L205.488 184.481C205.445 184.561 205.389 184.625 205.32 184.673C205.25 184.721 205.17 184.745 205.08 184.745H204.92C204.829 184.745 204.746 184.721 204.672 184.673C204.602 184.625 204.546 184.561 204.504 184.481L201.64 179.529C201.666 179.689 201.69 179.865 201.712 180.057C201.733 180.243 201.744 180.411 201.744 180.561V185.945H200.456V177.817H201.6C201.701 177.817 201.8 177.841 201.896 177.889C201.992 177.931 202.074 178.014 202.144 178.137L204.672 182.361C204.794 182.606 204.904 182.865 205 183.137C205.09 182.854 205.197 182.595 205.32 182.361L207.8 178.137C207.869 178.009 207.952 177.923 208.048 177.881C208.144 177.838 208.242 177.817 208.344 177.817H209.488ZM214.849 184.905C215.137 184.905 215.385 184.87 215.593 184.801C215.806 184.726 215.982 184.625 216.121 184.497C216.26 184.363 216.364 184.209 216.433 184.033C216.502 183.857 216.537 183.665 216.537 183.457C216.537 183.265 216.508 183.086 216.449 182.921C216.39 182.75 216.292 182.601 216.153 182.473C216.02 182.345 215.844 182.243 215.625 182.169C215.406 182.094 215.14 182.057 214.825 182.057H213.097V184.905H214.849ZM214.825 181.017C215.385 181.017 215.854 181.083 216.233 181.217C216.617 181.35 216.924 181.529 217.153 181.753C217.388 181.977 217.556 182.235 217.657 182.529C217.758 182.822 217.809 183.126 217.809 183.441C217.809 183.803 217.745 184.139 217.617 184.449C217.489 184.753 217.3 185.017 217.049 185.241C216.798 185.459 216.489 185.633 216.121 185.761C215.753 185.883 215.329 185.945 214.849 185.945H211.737V177.841H213.097V181.017H214.825ZM221.017 177.841V185.945H219.593V177.841H221.017ZM232.316 177.817V185.945H231.028V180.561C231.028 180.411 231.036 180.246 231.052 180.065C231.073 179.878 231.1 179.705 231.132 179.545L228.316 184.481C228.273 184.561 228.217 184.625 228.148 184.673C228.079 184.721 227.999 184.745 227.908 184.745H227.748C227.657 184.745 227.575 184.721 227.5 184.673C227.431 184.625 227.375 184.561 227.332 184.481L224.468 179.529C224.495 179.689 224.519 179.865 224.54 180.057C224.561 180.243 224.572 180.411 224.572 180.561V185.945H223.284V177.817H224.428C224.529 177.817 224.628 177.841 224.724 177.889C224.82 177.931 224.903 178.014 224.972 178.137L227.5 182.361C227.623 182.606 227.732 182.865 227.828 183.137C227.919 182.854 228.025 182.595 228.148 182.361L230.628 178.137C230.697 178.009 230.78 177.923 230.876 177.881C230.972 177.838 231.071 177.817 231.172 177.817H232.316Z" fill="#C1B180"/>
<defs>
<filter id="filter0_d" x="0.461853" y="0.929688" width="368.031" height="368.031" filterUnits="userSpaceOnUse" color-interpolation-filters="sRGB">
<feFlood flood-opacity="0" result="BackgroundImageFix"/>
<feColorMatrix in="SourceAlpha" type="matrix" values="0 0 0 0 0 0 0 0 0 0 0 0 0 0 0 0 0 0 127 0" result="hardAlpha"/>
<feOffset dx="2" dy="20"/>
<feGaussianBlur stdDeviation="30.5"/>
<feColorMatrix type="matrix" values="0 0 0 0 0.1375 0 0 0 0 0.105368 0 0 0 0 0.0120312 0 0 0 0.04 0"/>
<feBlend mode="normal" in2="BackgroundImageFix" result="effect1_dropShadow"/>
<feBlend mode="normal" in="SourceGraphic" in2="effect1_dropShadow" result="shape"/>
</filter>
<linearGradient id="paint0_linear" x1="35.5959" y1="36.4641" x2="217.048" y2="204.604" gradientUnits="userSpaceOnUse">
<stop stop-color="#FFEBB4" stop-opacity="0.47"/>
<stop offset="1" stop-color="#FFF2CE" stop-opacity="0"/>
</linearGradient>
<radialGradient id="paint1_radial" cx="0" cy="0" r="1" gradientUnits="userSpaceOnUse" gradientTransform="translate(92.6071 61.931) rotate(53.9993) scale(137.364)">
<stop stop-color="#FFF1C9"/>
<stop offset="1" stop-color="#FFF7E1" stop-opacity="0"/>
</radialGradient>
</defs>
</svg>
