<svg width="257" height="258" viewBox="0 0 257 258" fill="none" xmlns="http://www.w3.org/2000/svg">
<g filter="url(#filter0_d)">
<circle r="99.2949" transform="matrix(-1 0 0 1 126.494 108.945)" fill="#A1F3D1"/>
<circle r="99.2949" transform="matrix(-1 0 0 1 126.494 108.945)" fill="url(#paint0_linear)"/>
<circle r="99.2949" transform="matrix(-1 0 0 1 126.494 108.945)" fill="url(#paint1_radial)"/>
</g>
<path d="M64.2764 93.4808L59.6204 103.449C59.4764 103.763 59.3191 104.025 59.1484 104.233C58.9831 104.435 58.8044 104.598 58.6124 104.721C58.4204 104.838 58.2124 104.921 57.9884 104.969C57.7644 105.022 57.5244 105.049 57.2684 105.049C56.9804 105.049 56.7591 105.022 56.6044 104.969C56.4498 104.921 56.3724 104.846 56.3724 104.745V103.761H56.9324C57.0658 103.761 57.1991 103.747 57.3324 103.721C57.4658 103.689 57.5938 103.635 57.7164 103.561C57.8391 103.486 57.9564 103.387 58.0684 103.265C58.1804 103.137 58.2818 102.977 58.3724 102.785L58.9324 101.617L54.3244 93.4808H55.7724C55.9111 93.4808 56.0204 93.5155 56.1004 93.5848C56.1804 93.6488 56.2498 93.7342 56.3084 93.8408L59.1404 99.0408C59.3378 99.4195 59.4978 99.8035 59.6204 100.193C59.6791 100.001 59.7431 99.8088 59.8124 99.6168C59.8871 99.4248 59.9698 99.2328 60.0604 99.0408L62.4684 93.8408C62.5111 93.7502 62.5751 93.6675 62.6604 93.5928C62.7511 93.5182 62.8631 93.4808 62.9964 93.4808H64.2764ZM71.0703 104.945H69.6383V97.9288H65.7503V104.945H64.3183V96.8408H71.0703V104.945ZM74.7659 102.993C75.0273 103.345 75.3126 103.593 75.6219 103.737C75.9313 103.881 76.2779 103.953 76.6619 103.953C77.4193 103.953 78.0006 103.683 78.4059 103.145C78.8113 102.606 79.0139 101.838 79.0139 100.841C79.0139 100.313 78.9659 99.8595 78.8699 99.4808C78.7793 99.1022 78.6459 98.7928 78.4699 98.5528C78.2939 98.3075 78.0779 98.1288 77.8219 98.0168C77.5659 97.9048 77.2753 97.8488 76.9499 97.8488C76.4859 97.8488 76.0779 97.9555 75.7259 98.1688C75.3793 98.3822 75.0593 98.6835 74.7659 99.0728V102.993ZM74.6939 98.0968C75.0353 97.6755 75.4299 97.3368 75.8779 97.0808C76.3259 96.8248 76.8379 96.6968 77.4139 96.6968C77.8833 96.6968 78.3073 96.7875 78.6859 96.9688C79.0646 97.1448 79.3873 97.4088 79.6539 97.7608C79.9206 98.1075 80.1259 98.5395 80.2699 99.0568C80.4139 99.5742 80.4859 100.169 80.4859 100.841C80.4859 101.438 80.4059 101.995 80.2459 102.513C80.0859 103.025 79.8539 103.47 79.5499 103.849C79.2513 104.222 78.8833 104.518 78.4459 104.737C78.0139 104.95 77.5259 105.057 76.9819 105.057C76.4859 105.057 76.0593 104.974 75.7019 104.809C75.3499 104.638 75.0379 104.403 74.7659 104.105V107.689H73.3339V96.8408H74.1899C74.3926 96.8408 74.5179 96.9395 74.5659 97.1368L74.6939 98.0968ZM85.7031 96.7128C86.2951 96.7128 86.8284 96.8115 87.3031 97.0088C87.7777 97.2062 88.1831 97.4862 88.5191 97.8488C88.8551 98.2115 89.1111 98.6515 89.2871 99.1688C89.4684 99.6808 89.5591 100.254 89.5591 100.889C89.5591 101.529 89.4684 102.105 89.2871 102.617C89.1111 103.129 88.8551 103.566 88.5191 103.929C88.1831 104.291 87.7777 104.571 87.3031 104.769C86.8284 104.961 86.2951 105.057 85.7031 105.057C85.1057 105.057 84.5671 104.961 84.0871 104.769C83.6124 104.571 83.2071 104.291 82.8711 103.929C82.5351 103.566 82.2764 103.129 82.0951 102.617C81.9191 102.105 81.8311 101.529 81.8311 100.889C81.8311 100.254 81.9191 99.6808 82.0951 99.1688C82.2764 98.6515 82.5351 98.2115 82.8711 97.8488C83.2071 97.4862 83.6124 97.2062 84.0871 97.0088C84.5671 96.8115 85.1057 96.7128 85.7031 96.7128ZM85.7031 103.945C86.5031 103.945 87.1004 103.678 87.4951 103.145C87.8897 102.606 88.0871 101.857 88.0871 100.897C88.0871 99.9315 87.8897 99.1795 87.4951 98.6408C87.1004 98.1022 86.5031 97.8328 85.7031 97.8328C85.2977 97.8328 84.9431 97.9022 84.6391 98.0408C84.3404 98.1795 84.0897 98.3795 83.8871 98.6408C83.6897 98.9022 83.5404 99.2248 83.4391 99.6088C83.3431 99.9875 83.2951 100.417 83.2951 100.897C83.2951 101.857 83.4924 102.606 83.8871 103.145C84.2871 103.678 84.8924 103.945 85.7031 103.945ZM103.757 103.865V107.297C103.757 107.435 103.717 107.542 103.637 107.617C103.563 107.697 103.464 107.737 103.341 107.737H102.461V104.945H91.3652V96.8408H92.7972V103.865H96.1012V96.8408H97.5332V103.865H100.837V96.8408H102.269V103.865H103.757ZM109.585 101.297C108.929 101.318 108.369 101.371 107.905 101.457C107.447 101.537 107.071 101.643 106.777 101.777C106.489 101.91 106.279 102.067 106.145 102.249C106.017 102.43 105.953 102.633 105.953 102.857C105.953 103.07 105.988 103.254 106.057 103.409C106.127 103.563 106.22 103.691 106.337 103.793C106.46 103.889 106.601 103.961 106.761 104.009C106.927 104.051 107.103 104.073 107.289 104.073C107.54 104.073 107.769 104.049 107.977 104.001C108.185 103.947 108.38 103.873 108.561 103.777C108.748 103.681 108.924 103.566 109.089 103.433C109.26 103.299 109.425 103.147 109.585 102.977V101.297ZM104.985 97.9848C105.433 97.5528 105.916 97.2302 106.433 97.0168C106.951 96.8035 107.524 96.6968 108.153 96.6968C108.607 96.6968 109.009 96.7715 109.361 96.9208C109.713 97.0702 110.009 97.2782 110.249 97.5448C110.489 97.8115 110.671 98.1342 110.793 98.5128C110.916 98.8915 110.977 99.3075 110.977 99.7608V104.945H110.345C110.207 104.945 110.1 104.923 110.025 104.881C109.951 104.833 109.892 104.742 109.849 104.609L109.689 103.841C109.476 104.038 109.268 104.214 109.065 104.369C108.863 104.518 108.649 104.646 108.425 104.753C108.201 104.854 107.961 104.931 107.705 104.985C107.455 105.043 107.175 105.073 106.865 105.073C106.551 105.073 106.255 105.03 105.977 104.945C105.7 104.854 105.457 104.721 105.249 104.545C105.047 104.369 104.884 104.147 104.761 103.881C104.644 103.609 104.585 103.289 104.585 102.921C104.585 102.601 104.673 102.294 104.849 102.001C105.025 101.702 105.311 101.438 105.705 101.209C106.1 100.979 106.615 100.793 107.249 100.649C107.884 100.499 108.663 100.414 109.585 100.393V99.7608C109.585 99.1315 109.449 98.6568 109.177 98.3368C108.905 98.0115 108.508 97.8488 107.985 97.8488C107.633 97.8488 107.337 97.8942 107.097 97.9848C106.863 98.0702 106.657 98.1688 106.481 98.2808C106.311 98.3875 106.161 98.4862 106.033 98.5768C105.911 98.6622 105.788 98.7048 105.665 98.7048C105.569 98.7048 105.487 98.6808 105.417 98.6328C105.348 98.5795 105.289 98.5155 105.241 98.4408L104.985 97.9848ZM118.57 100.009C118.57 99.6782 118.522 99.3768 118.426 99.1048C118.336 98.8275 118.2 98.5902 118.018 98.3928C117.842 98.1902 117.626 98.0355 117.37 97.9288C117.114 97.8168 116.824 97.7608 116.498 97.7608C115.816 97.7608 115.274 97.9608 114.874 98.3608C114.48 98.7555 114.234 99.3048 114.138 100.009H118.57ZM119.722 103.809C119.546 104.022 119.336 104.209 119.09 104.369C118.845 104.523 118.581 104.651 118.298 104.753C118.021 104.854 117.733 104.929 117.434 104.977C117.136 105.03 116.84 105.057 116.546 105.057C115.986 105.057 115.469 104.963 114.994 104.777C114.525 104.585 114.117 104.307 113.77 103.945C113.429 103.577 113.162 103.123 112.97 102.585C112.778 102.046 112.682 101.427 112.682 100.729C112.682 100.163 112.768 99.6355 112.938 99.1448C113.114 98.6542 113.365 98.2302 113.69 97.8728C114.016 97.5102 114.413 97.2275 114.882 97.0248C115.352 96.8168 115.88 96.7128 116.466 96.7128C116.952 96.7128 117.4 96.7955 117.81 96.9608C118.226 97.1208 118.584 97.3555 118.882 97.6648C119.186 97.9688 119.424 98.3475 119.594 98.8008C119.765 99.2488 119.85 99.7608 119.85 100.337C119.85 100.561 119.826 100.71 119.778 100.785C119.73 100.859 119.64 100.897 119.506 100.897H114.09C114.106 101.409 114.176 101.854 114.298 102.233C114.426 102.611 114.602 102.929 114.826 103.185C115.05 103.435 115.317 103.625 115.626 103.753C115.936 103.875 116.282 103.937 116.666 103.937C117.024 103.937 117.33 103.897 117.586 103.817C117.848 103.731 118.072 103.641 118.258 103.545C118.445 103.449 118.6 103.361 118.722 103.281C118.85 103.195 118.96 103.153 119.05 103.153C119.168 103.153 119.258 103.198 119.322 103.289L119.722 103.809ZM128.211 97.9288H125.099V104.945H123.675V97.9288H120.563V96.8408H128.211V97.9288ZM134.88 98.2808C134.838 98.3395 134.795 98.3848 134.752 98.4168C134.71 98.4488 134.651 98.4648 134.576 98.4648C134.496 98.4648 134.408 98.4328 134.312 98.3688C134.216 98.2995 134.096 98.2248 133.952 98.1448C133.814 98.0648 133.64 97.9928 133.432 97.9288C133.23 97.8595 132.979 97.8248 132.68 97.8248C132.28 97.8248 131.928 97.8968 131.624 98.0408C131.32 98.1795 131.064 98.3822 130.856 98.6488C130.654 98.9155 130.499 99.2382 130.392 99.6168C130.291 99.9955 130.24 100.419 130.24 100.889C130.24 101.379 130.296 101.817 130.408 102.201C130.52 102.579 130.678 102.899 130.88 103.161C131.088 103.417 131.336 103.614 131.624 103.753C131.918 103.886 132.246 103.953 132.608 103.953C132.955 103.953 133.24 103.913 133.464 103.833C133.688 103.747 133.872 103.654 134.016 103.553C134.166 103.451 134.288 103.361 134.384 103.281C134.486 103.195 134.584 103.153 134.68 103.153C134.798 103.153 134.888 103.198 134.952 103.289L135.352 103.809C135.176 104.027 134.976 104.214 134.752 104.369C134.528 104.523 134.286 104.654 134.024 104.761C133.768 104.862 133.499 104.937 133.216 104.985C132.934 105.033 132.646 105.057 132.352 105.057C131.846 105.057 131.374 104.963 130.936 104.777C130.504 104.59 130.128 104.321 129.808 103.969C129.488 103.611 129.238 103.174 129.056 102.657C128.875 102.139 128.784 101.55 128.784 100.889C128.784 100.286 128.867 99.7288 129.032 99.2168C129.203 98.7048 129.448 98.2648 129.768 97.8968C130.094 97.5235 130.491 97.2328 130.96 97.0248C131.435 96.8168 131.979 96.7128 132.592 96.7128C133.163 96.7128 133.664 96.8062 134.096 96.9928C134.534 97.1742 134.92 97.4328 135.256 97.7688L134.88 98.2808ZM141.145 100.625V97.8008H139.785C139.481 97.8008 139.225 97.8462 139.017 97.9368C138.809 98.0222 138.641 98.1342 138.513 98.2728C138.39 98.4062 138.302 98.5582 138.249 98.7288C138.195 98.8942 138.169 99.0595 138.169 99.2248C138.169 99.6622 138.329 100.006 138.649 100.257C138.969 100.502 139.406 100.625 139.961 100.625H141.145ZM142.505 96.8408V104.945H141.145V101.529H140.521C140.371 101.529 140.246 101.542 140.145 101.569C140.049 101.59 139.963 101.622 139.889 101.665C139.819 101.707 139.758 101.763 139.705 101.833C139.651 101.897 139.595 101.971 139.537 102.057L137.761 104.449C137.67 104.619 137.558 104.745 137.425 104.825C137.297 104.905 137.107 104.945 136.857 104.945H135.865L138.217 101.889C138.409 101.569 138.662 101.355 138.977 101.249C138.566 101.195 138.219 101.099 137.937 100.961C137.654 100.822 137.422 100.659 137.241 100.473C137.065 100.281 136.937 100.07 136.857 99.8408C136.777 99.6115 136.737 99.3795 136.737 99.1448C136.737 98.8675 136.79 98.5902 136.897 98.3128C137.009 98.0355 137.185 97.7902 137.425 97.5768C137.665 97.3582 137.974 97.1822 138.353 97.0488C138.737 96.9102 139.201 96.8408 139.745 96.8408H142.505ZM150.297 102.993C150.559 103.345 150.844 103.593 151.153 103.737C151.463 103.881 151.809 103.953 152.193 103.953C152.951 103.953 153.532 103.683 153.937 103.145C154.343 102.606 154.545 101.838 154.545 100.841C154.545 100.313 154.497 99.8595 154.401 99.4808C154.311 99.1022 154.177 98.7928 154.001 98.5528C153.825 98.3075 153.609 98.1288 153.353 98.0168C153.097 97.9048 152.807 97.8488 152.481 97.8488C152.017 97.8488 151.609 97.9555 151.257 98.1688C150.911 98.3822 150.591 98.6835 150.297 99.0728V102.993ZM150.225 98.0968C150.567 97.6755 150.961 97.3368 151.409 97.0808C151.857 96.8248 152.369 96.6968 152.945 96.6968C153.415 96.6968 153.839 96.7875 154.217 96.9688C154.596 97.1448 154.919 97.4088 155.185 97.7608C155.452 98.1075 155.657 98.5395 155.801 99.0568C155.945 99.5742 156.017 100.169 156.017 100.841C156.017 101.438 155.937 101.995 155.777 102.513C155.617 103.025 155.385 103.47 155.081 103.849C154.783 104.222 154.415 104.518 153.977 104.737C153.545 104.95 153.057 105.057 152.513 105.057C152.017 105.057 151.591 104.974 151.233 104.809C150.881 104.638 150.569 104.403 150.297 104.105V107.689H148.865V96.8408H149.721C149.924 96.8408 150.049 96.9395 150.097 97.1368L150.225 98.0968ZM162.21 101.297C161.554 101.318 160.994 101.371 160.53 101.457C160.072 101.537 159.696 101.643 159.402 101.777C159.114 101.91 158.904 102.067 158.77 102.249C158.642 102.43 158.578 102.633 158.578 102.857C158.578 103.07 158.613 103.254 158.682 103.409C158.752 103.563 158.845 103.691 158.962 103.793C159.085 103.889 159.226 103.961 159.386 104.009C159.552 104.051 159.728 104.073 159.914 104.073C160.165 104.073 160.394 104.049 160.602 104.001C160.81 103.947 161.005 103.873 161.186 103.777C161.373 103.681 161.549 103.566 161.714 103.433C161.885 103.299 162.05 103.147 162.21 102.977V101.297ZM157.61 97.9848C158.058 97.5528 158.541 97.2302 159.058 97.0168C159.576 96.8035 160.149 96.6968 160.778 96.6968C161.232 96.6968 161.634 96.7715 161.986 96.9208C162.338 97.0702 162.634 97.2782 162.874 97.5448C163.114 97.8115 163.296 98.1342 163.418 98.5128C163.541 98.8915 163.602 99.3075 163.602 99.7608V104.945H162.97C162.832 104.945 162.725 104.923 162.65 104.881C162.576 104.833 162.517 104.742 162.474 104.609L162.314 103.841C162.101 104.038 161.893 104.214 161.69 104.369C161.488 104.518 161.274 104.646 161.05 104.753C160.826 104.854 160.586 104.931 160.33 104.985C160.08 105.043 159.8 105.073 159.49 105.073C159.176 105.073 158.88 105.03 158.602 104.945C158.325 104.854 158.082 104.721 157.874 104.545C157.672 104.369 157.509 104.147 157.386 103.881C157.269 103.609 157.21 103.289 157.21 102.921C157.21 102.601 157.298 102.294 157.474 102.001C157.65 101.702 157.936 101.438 158.33 101.209C158.725 100.979 159.24 100.793 159.874 100.649C160.509 100.499 161.288 100.414 162.21 100.393V99.7608C162.21 99.1315 162.074 98.6568 161.802 98.3368C161.53 98.0115 161.133 97.8488 160.61 97.8488C160.258 97.8488 159.962 97.8942 159.722 97.9848C159.488 98.0702 159.282 98.1688 159.106 98.2808C158.936 98.3875 158.786 98.4862 158.658 98.5768C158.536 98.6622 158.413 98.7048 158.29 98.7048C158.194 98.7048 158.112 98.6808 158.042 98.6328C157.973 98.5795 157.914 98.5155 157.866 98.4408L157.61 97.9848ZM169.427 104.001C170.227 104.001 170.83 103.747 171.235 103.241C171.646 102.729 171.851 102.014 171.851 101.097C171.851 100.185 171.654 99.4728 171.259 98.9608C170.87 98.4488 170.283 98.1928 169.499 98.1928C169.121 98.1928 168.779 98.2542 168.475 98.3768C168.171 98.4942 167.913 98.6675 167.699 98.8968C167.491 99.1262 167.329 99.4088 167.211 99.7448C167.099 100.081 167.043 100.465 167.043 100.897C167.043 101.382 167.094 101.817 167.195 102.201C167.297 102.585 167.446 102.91 167.643 103.177C167.846 103.443 168.094 103.649 168.387 103.793C168.686 103.931 169.033 104.001 169.427 104.001ZM169.979 94.9368C169.435 94.9848 168.969 95.1048 168.579 95.2968C168.195 95.4888 167.875 95.7502 167.619 96.0808C167.363 96.4062 167.171 96.7982 167.043 97.2568C166.915 97.7155 166.841 98.2328 166.819 98.8088C166.947 98.5528 167.113 98.3235 167.315 98.1208C167.518 97.9128 167.75 97.7368 168.011 97.5928C168.273 97.4435 168.555 97.3315 168.859 97.2568C169.169 97.1768 169.497 97.1368 169.843 97.1368C170.382 97.1368 170.865 97.2328 171.291 97.4248C171.723 97.6115 172.089 97.8782 172.387 98.2248C172.691 98.5715 172.923 98.9902 173.083 99.4808C173.243 99.9662 173.323 100.505 173.323 101.097C173.323 101.699 173.23 102.246 173.043 102.737C172.862 103.222 172.601 103.638 172.259 103.985C171.918 104.326 171.507 104.59 171.027 104.777C170.553 104.963 170.019 105.057 169.427 105.057C168.883 105.057 168.374 104.966 167.899 104.785C167.425 104.603 167.014 104.305 166.667 103.889C166.321 103.473 166.046 102.926 165.843 102.249C165.646 101.566 165.547 100.726 165.547 99.7288C165.547 98.8755 165.625 98.0915 165.779 97.3768C165.934 96.6622 166.182 96.0408 166.523 95.5128C166.87 94.9848 167.315 94.5608 167.859 94.2408C168.409 93.9155 169.075 93.7182 169.859 93.6488L172.755 93.4008L172.835 94.1368C172.851 94.3022 172.827 94.4408 172.763 94.5528C172.699 94.6648 172.585 94.7262 172.419 94.7368L169.979 94.9368ZM178.547 96.7128C179.139 96.7128 179.672 96.8115 180.147 97.0088C180.621 97.2062 181.027 97.4862 181.363 97.8488C181.699 98.2115 181.955 98.6515 182.131 99.1688C182.312 99.6808 182.403 100.254 182.403 100.889C182.403 101.529 182.312 102.105 182.131 102.617C181.955 103.129 181.699 103.566 181.363 103.929C181.027 104.291 180.621 104.571 180.147 104.769C179.672 104.961 179.139 105.057 178.547 105.057C177.949 105.057 177.411 104.961 176.931 104.769C176.456 104.571 176.051 104.291 175.715 103.929C175.379 103.566 175.12 103.129 174.939 102.617C174.763 102.105 174.675 101.529 174.675 100.889C174.675 100.254 174.763 99.6808 174.939 99.1688C175.12 98.6515 175.379 98.2115 175.715 97.8488C176.051 97.4862 176.456 97.2062 176.931 97.0088C177.411 96.8115 177.949 96.7128 178.547 96.7128ZM178.547 103.945C179.347 103.945 179.944 103.678 180.339 103.145C180.733 102.606 180.931 101.857 180.931 100.897C180.931 99.9315 180.733 99.1795 180.339 98.6408C179.944 98.1022 179.347 97.8328 178.547 97.8328C178.141 97.8328 177.787 97.9022 177.483 98.0408C177.184 98.1795 176.933 98.3795 176.731 98.6408C176.533 98.9022 176.384 99.2248 176.283 99.6088C176.187 99.9875 176.139 100.417 176.139 100.897C176.139 101.857 176.336 102.606 176.731 103.145C177.131 103.678 177.736 103.945 178.547 103.945ZM190.617 97.9288H187.505V104.945H186.081V97.9288H182.969V96.8408H190.617V97.9288ZM196.288 101.297C195.632 101.318 195.072 101.371 194.608 101.457C194.15 101.537 193.774 101.643 193.48 101.777C193.192 101.91 192.982 102.067 192.848 102.249C192.72 102.43 192.656 102.633 192.656 102.857C192.656 103.07 192.691 103.254 192.76 103.409C192.83 103.563 192.923 103.691 193.04 103.793C193.163 103.889 193.304 103.961 193.464 104.009C193.63 104.051 193.806 104.073 193.992 104.073C194.243 104.073 194.472 104.049 194.68 104.001C194.888 103.947 195.083 103.873 195.264 103.777C195.451 103.681 195.627 103.566 195.792 103.433C195.963 103.299 196.128 103.147 196.288 102.977V101.297ZM191.688 97.9848C192.136 97.5528 192.619 97.2302 193.136 97.0168C193.654 96.8035 194.227 96.6968 194.856 96.6968C195.31 96.6968 195.712 96.7715 196.064 96.9208C196.416 97.0702 196.712 97.2782 196.952 97.5448C197.192 97.8115 197.374 98.1342 197.496 98.5128C197.619 98.8915 197.68 99.3075 197.68 99.7608V104.945H197.048C196.91 104.945 196.803 104.923 196.728 104.881C196.654 104.833 196.595 104.742 196.552 104.609L196.392 103.841C196.179 104.038 195.971 104.214 195.768 104.369C195.566 104.518 195.352 104.646 195.128 104.753C194.904 104.854 194.664 104.931 194.408 104.985C194.158 105.043 193.878 105.073 193.568 105.073C193.254 105.073 192.958 105.03 192.68 104.945C192.403 104.854 192.16 104.721 191.952 104.545C191.75 104.369 191.587 104.147 191.464 103.881C191.347 103.609 191.288 103.289 191.288 102.921C191.288 102.601 191.376 102.294 191.552 102.001C191.728 101.702 192.014 101.438 192.408 101.209C192.803 100.979 193.318 100.793 193.952 100.649C194.587 100.499 195.366 100.414 196.288 100.393V99.7608C196.288 99.1315 196.152 98.6568 195.88 98.3368C195.608 98.0115 195.211 97.8488 194.688 97.8488C194.336 97.8488 194.04 97.8942 193.8 97.9848C193.566 98.0702 193.36 98.1688 193.184 98.2808C193.014 98.3875 192.864 98.4862 192.736 98.5768C192.614 98.6622 192.491 98.7048 192.368 98.7048C192.272 98.7048 192.19 98.6808 192.12 98.6328C192.051 98.5795 191.992 98.5155 191.944 98.4408L191.688 97.9848ZM99.6328 121.841V129.945H98.2008V126.153H94.3128V129.945H92.8808V121.841H94.3128V125.073H98.2008V121.841H99.6328ZM106.288 126.297C105.632 126.318 105.072 126.371 104.608 126.457C104.15 126.537 103.774 126.643 103.48 126.777C103.192 126.91 102.982 127.067 102.848 127.249C102.72 127.43 102.656 127.633 102.656 127.857C102.656 128.07 102.691 128.254 102.76 128.409C102.83 128.563 102.923 128.691 103.04 128.793C103.163 128.889 103.304 128.961 103.464 129.009C103.63 129.051 103.806 129.073 103.992 129.073C104.243 129.073 104.472 129.049 104.68 129.001C104.888 128.947 105.083 128.873 105.264 128.777C105.451 128.681 105.627 128.566 105.792 128.433C105.963 128.299 106.128 128.147 106.288 127.977V126.297ZM101.688 122.985C102.136 122.553 102.619 122.23 103.136 122.017C103.654 121.803 104.227 121.697 104.856 121.697C105.31 121.697 105.712 121.771 106.064 121.921C106.416 122.07 106.712 122.278 106.952 122.545C107.192 122.811 107.374 123.134 107.496 123.513C107.619 123.891 107.68 124.307 107.68 124.761V129.945H107.048C106.91 129.945 106.803 129.923 106.728 129.881C106.654 129.833 106.595 129.742 106.552 129.609L106.392 128.841C106.179 129.038 105.971 129.214 105.768 129.369C105.566 129.518 105.352 129.646 105.128 129.753C104.904 129.854 104.664 129.931 104.408 129.985C104.158 130.043 103.878 130.073 103.568 130.073C103.254 130.073 102.958 130.03 102.68 129.945C102.403 129.854 102.16 129.721 101.952 129.545C101.75 129.369 101.587 129.147 101.464 128.881C101.347 128.609 101.288 128.289 101.288 127.921C101.288 127.601 101.376 127.294 101.552 127.001C101.728 126.702 102.014 126.438 102.408 126.209C102.803 125.979 103.318 125.793 103.952 125.649C104.587 125.499 105.366 125.414 106.288 125.393V124.761C106.288 124.131 106.152 123.657 105.88 123.337C105.608 123.011 105.211 122.849 104.688 122.849C104.336 122.849 104.04 122.894 103.8 122.985C103.566 123.07 103.36 123.169 103.184 123.281C103.014 123.387 102.864 123.486 102.736 123.577C102.614 123.662 102.491 123.705 102.368 123.705C102.272 123.705 102.19 123.681 102.12 123.633C102.051 123.579 101.992 123.515 101.944 123.441L101.688 122.985ZM119.087 128.977C119.562 128.955 119.981 128.867 120.343 128.713C120.711 128.558 121.018 128.35 121.263 128.089C121.514 127.822 121.701 127.505 121.823 127.137C121.951 126.769 122.015 126.355 122.015 125.897C122.015 125.433 121.951 125.017 121.823 124.649C121.701 124.275 121.514 123.955 121.263 123.689C121.018 123.422 120.711 123.214 120.343 123.065C119.981 122.91 119.559 122.819 119.079 122.793V128.905L119.087 128.977ZM117.823 122.793C117.343 122.819 116.922 122.91 116.559 123.065C116.197 123.214 115.89 123.422 115.639 123.689C115.394 123.955 115.207 124.275 115.079 124.649C114.957 125.022 114.895 125.438 114.895 125.897C114.895 126.355 114.957 126.769 115.079 127.137C115.207 127.505 115.394 127.822 115.639 128.089C115.885 128.35 116.189 128.558 116.551 128.713C116.919 128.867 117.341 128.955 117.815 128.977L117.823 128.929V122.793ZM119.127 121.721C119.794 121.747 120.394 121.865 120.927 122.073C121.461 122.281 121.914 122.566 122.287 122.929C122.661 123.291 122.946 123.723 123.143 124.225C123.346 124.721 123.447 125.275 123.447 125.889C123.447 126.502 123.346 127.059 123.143 127.561C122.946 128.057 122.661 128.486 122.287 128.849C121.914 129.206 121.461 129.489 120.927 129.697C120.394 129.905 119.794 130.022 119.127 130.049V132.737H117.783V130.049C117.117 130.022 116.517 129.905 115.983 129.697C115.45 129.489 114.997 129.206 114.623 128.849C114.25 128.486 113.962 128.057 113.759 127.561C113.562 127.059 113.463 126.502 113.463 125.889C113.463 125.275 113.562 124.721 113.759 124.225C113.962 123.723 114.25 123.291 114.623 122.929C114.997 122.566 115.45 122.281 115.983 122.073C116.517 121.865 117.117 121.747 117.783 121.721V118.481H119.127V121.721ZM130.649 125.009C130.649 124.678 130.601 124.377 130.505 124.105C130.414 123.827 130.278 123.59 130.097 123.393C129.921 123.19 129.705 123.035 129.449 122.929C129.193 122.817 128.902 122.761 128.577 122.761C127.894 122.761 127.353 122.961 126.953 123.361C126.558 123.755 126.313 124.305 126.217 125.009H130.649ZM131.801 128.809C131.625 129.022 131.414 129.209 131.169 129.369C130.923 129.523 130.659 129.651 130.377 129.753C130.099 129.854 129.811 129.929 129.513 129.977C129.214 130.03 128.918 130.057 128.625 130.057C128.065 130.057 127.547 129.963 127.073 129.777C126.603 129.585 126.195 129.307 125.849 128.945C125.507 128.577 125.241 128.123 125.049 127.585C124.857 127.046 124.761 126.427 124.761 125.729C124.761 125.163 124.846 124.635 125.017 124.145C125.193 123.654 125.443 123.23 125.769 122.873C126.094 122.51 126.491 122.227 126.961 122.025C127.43 121.817 127.958 121.713 128.545 121.713C129.03 121.713 129.478 121.795 129.889 121.961C130.305 122.121 130.662 122.355 130.961 122.665C131.265 122.969 131.502 123.347 131.673 123.801C131.843 124.249 131.929 124.761 131.929 125.337C131.929 125.561 131.905 125.71 131.857 125.785C131.809 125.859 131.718 125.897 131.585 125.897H126.169C126.185 126.409 126.254 126.854 126.377 127.233C126.505 127.611 126.681 127.929 126.905 128.185C127.129 128.435 127.395 128.625 127.705 128.753C128.014 128.875 128.361 128.937 128.745 128.937C129.102 128.937 129.409 128.897 129.665 128.817C129.926 128.731 130.15 128.641 130.337 128.545C130.523 128.449 130.678 128.361 130.801 128.281C130.929 128.195 131.038 128.153 131.129 128.153C131.246 128.153 131.337 128.198 131.401 128.289L131.801 128.809ZM135.11 127.993C135.371 128.345 135.656 128.593 135.966 128.737C136.275 128.881 136.622 128.953 137.006 128.953C137.763 128.953 138.344 128.683 138.75 128.145C139.155 127.606 139.358 126.838 139.358 125.841C139.358 125.313 139.31 124.859 139.214 124.481C139.123 124.102 138.99 123.793 138.814 123.553C138.638 123.307 138.422 123.129 138.166 123.017C137.91 122.905 137.619 122.849 137.294 122.849C136.83 122.849 136.422 122.955 136.07 123.169C135.723 123.382 135.403 123.683 135.11 124.073V127.993ZM135.038 123.097C135.379 122.675 135.774 122.337 136.222 122.081C136.67 121.825 137.182 121.697 137.758 121.697C138.227 121.697 138.651 121.787 139.03 121.969C139.408 122.145 139.731 122.409 139.998 122.761C140.264 123.107 140.47 123.539 140.614 124.057C140.758 124.574 140.83 125.169 140.83 125.841C140.83 126.438 140.75 126.995 140.59 127.513C140.43 128.025 140.198 128.47 139.894 128.849C139.595 129.222 139.227 129.518 138.79 129.737C138.358 129.95 137.87 130.057 137.326 130.057C136.83 130.057 136.403 129.974 136.046 129.809C135.694 129.638 135.382 129.403 135.11 129.105V132.689H133.678V121.841H134.534C134.736 121.841 134.862 121.939 134.91 122.137L135.038 123.097ZM151.663 121.817V129.945H150.375V124.561C150.375 124.411 150.383 124.246 150.399 124.065C150.42 123.878 150.447 123.705 150.479 123.545L147.663 128.481C147.62 128.561 147.564 128.625 147.495 128.673C147.425 128.721 147.345 128.745 147.255 128.745H147.095C147.004 128.745 146.921 128.721 146.847 128.673C146.777 128.625 146.721 128.561 146.679 128.481L143.815 123.529C143.841 123.689 143.865 123.865 143.887 124.057C143.908 124.243 143.919 124.411 143.919 124.561V129.945H142.631V121.817H143.775C143.876 121.817 143.975 121.841 144.071 121.889C144.167 121.931 144.249 122.014 144.319 122.137L146.847 126.361C146.969 126.606 147.079 126.865 147.175 127.137C147.265 126.854 147.372 126.595 147.495 126.361L149.975 122.137C150.044 122.009 150.127 121.923 150.223 121.881C150.319 121.838 150.417 121.817 150.519 121.817H151.663ZM159.336 125.009C159.336 124.678 159.288 124.377 159.192 124.105C159.101 123.827 158.965 123.59 158.784 123.393C158.608 123.19 158.392 123.035 158.136 122.929C157.88 122.817 157.589 122.761 157.264 122.761C156.581 122.761 156.04 122.961 155.64 123.361C155.245 123.755 155 124.305 154.904 125.009H159.336ZM160.488 128.809C160.312 129.022 160.101 129.209 159.856 129.369C159.611 129.523 159.347 129.651 159.064 129.753C158.787 129.854 158.499 129.929 158.2 129.977C157.901 130.03 157.605 130.057 157.312 130.057C156.752 130.057 156.235 129.963 155.76 129.777C155.291 129.585 154.883 129.307 154.536 128.945C154.195 128.577 153.928 128.123 153.736 127.585C153.544 127.046 153.448 126.427 153.448 125.729C153.448 125.163 153.533 124.635 153.704 124.145C153.88 123.654 154.131 123.23 154.456 122.873C154.781 122.51 155.179 122.227 155.648 122.025C156.117 121.817 156.645 121.713 157.232 121.713C157.717 121.713 158.165 121.795 158.576 121.961C158.992 122.121 159.349 122.355 159.648 122.665C159.952 122.969 160.189 123.347 160.36 123.801C160.531 124.249 160.616 124.761 160.616 125.337C160.616 125.561 160.592 125.71 160.544 125.785C160.496 125.859 160.405 125.897 160.272 125.897H154.856C154.872 126.409 154.941 126.854 155.064 127.233C155.192 127.611 155.368 127.929 155.592 128.185C155.816 128.435 156.083 128.625 156.392 128.753C156.701 128.875 157.048 128.937 157.432 128.937C157.789 128.937 158.096 128.897 158.352 128.817C158.613 128.731 158.837 128.641 159.024 128.545C159.211 128.449 159.365 128.361 159.488 128.281C159.616 128.195 159.725 128.153 159.816 128.153C159.933 128.153 160.024 128.198 160.088 128.289L160.488 128.809Z" fill="#21A46D" fill-opacity="0.7"/>
<defs>
<filter id="filter0_d" x="0.199219" y="0.649902" width="256.59" height="256.59" filterUnits="userSpaceOnUse" color-interpolation-filters="sRGB">
<feFlood flood-opacity="0" result="BackgroundImageFix"/>
<feColorMatrix in="SourceAlpha" type="matrix" values="0 0 0 0 0 0 0 0 0 0 0 0 0 0 0 0 0 0 127 0" result="hardAlpha"/>
<feOffset dx="2" dy="20"/>
<feGaussianBlur stdDeviation="14.5"/>
<feColorMatrix type="matrix" values="0 0 0 0 0.0046875 0 0 0 0 0.1125 0 0 0 0 0.06075 0 0 0 0.06 0"/>
<feBlend mode="normal" in2="BackgroundImageFix" result="effect1_dropShadow"/>
<feBlend mode="normal" in="SourceGraphic" in2="effect1_dropShadow" result="shape"/>
</filter>
<linearGradient id="paint0_linear" x1="28.7371" y1="29.438" x2="175.226" y2="165.18" gradientUnits="userSpaceOnUse">
<stop stop-color="#ACF3C9" stop-opacity="0.47"/>
<stop offset="1" stop-color="#C6FFDD" stop-opacity="0"/>
</linearGradient>
<radialGradient id="paint1_radial" cx="0" cy="0" r="1" gradientUnits="userSpaceOnUse" gradientTransform="translate(74.7632 49.9979) rotate(53.9993) scale(110.896)">
<stop stop-color="#E6FFF4"/>
<stop offset="1" stop-color="#EAFFF6" stop-opacity="0"/>
</radialGradient>
</defs>
</svg>
