<svg width="36" height="36" viewBox="0 0 36 36" fill="none" xmlns="http://www.w3.org/2000/svg">
<g clip-path="url(#clip0)">
<path d="M17.9991 35.7861H15.2647C13.9077 35.7861 12.8038 34.6822 12.8038 33.3252V16.3721C12.8038 15.0151 13.9077 13.9111 15.2647 13.9111H17.9991C19.3561 13.9111 20.4601 15.0151 20.4601 16.3721V33.3252C20.4601 34.6822 19.356 35.7861 17.9991 35.7861Z" fill="#4785D3"/>
<path d="M7.60849 35.7861H4.87412C3.51711 35.7861 2.41318 34.6822 2.41318 33.3252V21.8408C2.41318 20.4838 3.51711 19.3799 4.87412 19.3799H7.60849C8.96549 19.3799 10.0694 20.4838 10.0694 21.8408V33.3252C10.0694 34.6822 8.96543 35.7861 7.60849 35.7861Z" fill="#4785D3"/>
<path d="M28.3914 35.7861H25.6571C24.3001 35.7861 23.1961 34.6822 23.1961 33.3252V10.6299H21.6936C20.9911 10.6299 20.3723 10.2334 20.0788 9.59519C19.7853 8.95699 19.8869 8.22924 20.3441 7.69583C20.3493 7.68975 20.3546 7.68366 20.36 7.67771L26.2097 1.14994C26.4171 0.918408 26.7133 0.786133 27.0242 0.786133C27.3351 0.786133 27.6313 0.918408 27.8388 1.14994L33.6885 7.67771C33.6939 7.68366 33.6992 7.68975 33.7044 7.69583C34.1616 8.22917 34.2632 8.95699 33.9697 9.59519C33.6762 10.2334 33.0574 10.6299 32.3549 10.6299H30.8524V33.3252C30.8524 34.6822 29.7484 35.7861 28.3914 35.7861Z" fill="#7AA6DE"/>
</g>
<defs>
<clipPath id="clip0">
<rect width="35" height="35" fill="white" transform="translate(0.773438 0.786133)"/>
</clipPath>
</defs>
</svg>
