<svg width="42" height="39" viewBox="0 0 42 39" fill="none" xmlns="http://www.w3.org/2000/svg">
<path fill-rule="evenodd" clip-rule="evenodd" d="M18.2734 38.3813C27.9384 38.3813 35.7734 30.5463 35.7734 20.8813C35.7734 11.2164 27.9384 3.38135 18.2734 3.38135C8.60845 3.38135 0.773438 11.2164 0.773438 20.8813C0.773438 30.5463 8.60845 38.3813 18.2734 38.3813ZM20.7751 11.6501L19.8001 11.669L16.3551 28.3201L12.3724 18.9065L11.964 17.9412L11.4707 18.866L8.26107 24.8842H6.0978V25.8842H8.56107H8.86107L9.00224 25.6195L11.8598 20.2615L16.0592 30.1872L16.6843 31.6646L17.0093 30.0937L20.3337 14.0259L22.8415 24.1434L22.9356 24.5231H23.3268H30.448V23.5231H23.718L20.7751 11.6501Z" fill="#3183D8"/>
<path fill-rule="evenodd" clip-rule="evenodd" d="M32.8114 17.6662C37.5203 17.6662 41.3376 13.8489 41.3376 9.14C41.3376 4.43109 37.5203 0.61377 32.8114 0.61377C28.1025 0.61377 24.2852 4.43109 24.2852 9.14C24.2852 13.8489 28.1025 17.6662 32.8114 17.6662ZM35.6751 7.53501C35.8095 7.38135 35.794 7.1478 35.6403 7.01335C35.4867 6.8789 35.2531 6.89447 35.1187 7.04813L32.1261 10.4682L30.4632 9.02856C30.3089 8.89491 30.0754 8.91171 29.9418 9.06606C29.8081 9.22042 29.8249 9.45389 29.9793 9.58753L31.9201 11.2679C32.0739 11.4011 32.3064 11.385 32.4403 11.2319L35.6751 7.53501Z" fill="#1DC8F3"/>
</svg>
