<svg width="49" height="45" viewBox="0 0 49 45" fill="none" xmlns="http://www.w3.org/2000/svg">
<path fill-rule="evenodd" clip-rule="evenodd" d="M18.7443 36.7562C18.9654 37.3026 19.7389 37.3026 19.9599 36.7562L20.8718 34.5024C21.063 34.03 21.6963 33.9466 22.0031 34.3534L23.4673 36.2945C23.8222 36.765 24.5694 36.5648 24.6415 35.9799L24.939 33.5668C25.0013 33.061 25.5915 32.8166 25.9932 33.1301L27.9098 34.6261C28.3745 34.9887 29.0444 34.6019 28.9626 34.0183L28.6254 31.6104C28.5547 31.1058 29.0615 30.7169 29.5307 30.9158L31.7692 31.8647C32.3118 32.0947 32.8588 31.5477 32.6288 31.0051L31.6799 28.7666C31.481 28.2974 31.8698 27.7906 32.3745 27.8613L34.7824 28.1985C35.366 28.2803 35.7528 27.6104 35.3902 27.1457L33.8942 25.2291C33.5807 24.8274 33.8251 24.2372 34.3309 24.1749L36.744 23.8774C37.3289 23.8053 37.5291 23.0581 37.0586 22.7032L35.1175 21.239C34.7107 20.9322 34.7941 20.2989 35.2665 20.1077L37.5203 19.1959C38.0667 18.9748 38.0667 18.2013 37.5203 17.9802L35.2665 17.0683C34.7941 16.8772 34.7107 16.2439 35.1175 15.937L37.0586 14.4729C37.5291 14.1179 37.3289 13.3707 36.744 13.2986L34.3309 13.0012C33.8251 12.9388 33.5807 12.3487 33.8942 11.947L35.3902 10.0303C35.7528 9.5657 35.366 8.89579 34.7824 8.97753L32.3745 9.31475C31.8698 9.38543 31.481 8.87865 31.6799 8.4095L32.6288 6.17095C32.8588 5.62831 32.3118 5.08134 31.7692 5.31136L29.5307 6.26029C29.0615 6.45917 28.5547 6.0703 28.6254 5.56567L28.9626 3.1578C29.0444 2.57412 28.3745 2.18734 27.9098 2.54998L25.9932 4.04595C25.5915 4.35948 25.0013 4.11503 24.939 3.60929L24.6415 1.19619C24.5694 0.61124 23.8222 0.411034 23.4673 0.881561L22.0031 2.82263C21.6963 3.22944 21.063 3.14606 20.8718 2.67369L19.9599 0.419811C19.7389 -0.126545 18.9654 -0.126545 18.7443 0.419811L17.8324 2.67369C17.6413 3.14606 17.008 3.22944 16.7011 2.82263L15.237 0.881561C14.882 0.411034 14.1348 0.61124 14.0627 1.19619L13.7653 3.60929C13.7029 4.11503 13.1128 4.35948 12.7111 4.04595L10.7944 2.54998C10.3298 2.18734 9.65989 2.57412 9.74163 3.1578L10.0788 5.56567C10.1495 6.0703 9.64275 6.45917 9.1736 6.26029L6.93505 5.31136C6.39241 5.08134 5.84544 5.62831 6.07546 6.17095L7.02439 8.4095C7.22327 8.87865 6.8344 9.38543 6.32977 9.31475L3.9219 8.97753C3.33821 8.89579 2.95144 9.5657 3.31408 10.0303L4.81005 11.947C5.12358 12.3487 4.87913 12.9388 4.37339 13.0012L1.96029 13.2986C1.37534 13.3707 1.17513 14.1179 1.64566 14.4729L3.58673 15.937C3.99354 16.2439 3.91016 16.8772 3.43779 17.0683L1.18391 17.9802C0.637554 18.2013 0.637554 18.9748 1.18391 19.1959L3.43779 20.1077C3.91016 20.2989 3.99354 20.9322 3.58673 21.239L1.64566 22.7032C1.17513 23.0581 1.37534 23.8053 1.96029 23.8774L4.37339 24.1749C4.87913 24.2372 5.12358 24.8274 4.81005 25.2291L3.31408 27.1457C2.95144 27.6104 3.33821 28.2803 3.9219 28.1985L6.32977 27.8613C6.8344 27.7906 7.22327 28.2974 7.02439 28.7666L6.07546 31.0051C5.84544 31.5477 6.39241 32.0947 6.93505 31.8647L9.1736 30.9158C9.64275 30.7169 10.1495 31.1058 10.0788 31.6104L9.74163 34.0183C9.65989 34.6019 10.3298 34.9887 10.7944 34.6261L12.7111 33.1301C13.1128 32.8166 13.7029 33.061 13.7653 33.5668L14.0627 35.9799C14.1348 36.5648 14.882 36.765 15.237 36.2945L16.7011 34.3534C17.008 33.9466 17.6413 34.03 17.8324 34.5024L18.7443 36.7562ZM18.8741 12.8603C15.9771 12.8603 13.6286 15.2087 13.6286 18.1057C13.6286 21.0027 15.9771 23.3512 18.8741 23.3512C21.7711 23.3512 24.1196 21.0027 24.1196 18.1057C24.1196 15.2087 21.7711 12.8603 18.8741 12.8603Z" fill="#4785D3"/>
<path fill-rule="evenodd" clip-rule="evenodd" d="M36.1977 44.2229C36.3357 44.5637 36.8183 44.5637 36.9562 44.2229L37.5251 42.8166C37.6444 42.5219 38.0395 42.4699 38.231 42.7237L39.1445 43.9348C39.3659 44.2283 39.8321 44.1034 39.8771 43.7385L40.0627 42.2329C40.1016 41.9174 40.4698 41.7649 40.7204 41.9605L41.9162 42.8938C42.2061 43.1201 42.6241 42.8788 42.5731 42.5146L42.3627 41.0123C42.3186 40.6975 42.6347 40.4548 42.9275 40.5789L44.3241 41.171C44.6627 41.3145 45.0039 40.9732 44.8604 40.6347L44.2684 39.238C44.1443 38.9453 44.3869 38.6291 44.7018 38.6732L46.204 38.8836C46.5682 38.9346 46.8095 38.5166 46.5833 38.2268L45.6499 37.0309C45.4543 36.7803 45.6068 36.4121 45.9224 36.3732L47.4279 36.1876C47.7929 36.1426 47.9178 35.6765 47.6242 35.455L46.4132 34.5415C46.1594 34.35 46.2114 33.9549 46.5061 33.8357L47.9123 33.2667C48.2532 33.1288 48.2532 32.6462 47.9123 32.5083L46.5061 31.9393C46.2114 31.8201 46.1594 31.425 46.4132 31.2335L47.6242 30.32C47.9178 30.0986 47.7929 29.6324 47.4279 29.5874L45.9224 29.4018C45.6068 29.3629 45.4543 28.9947 45.6499 28.7441L46.5833 27.5483C46.8095 27.2584 46.5682 26.8404 46.204 26.8914L44.7018 27.1018C44.3869 27.1459 44.1443 26.8297 44.2684 26.537L44.8604 25.1404C45.0039 24.8018 44.6627 24.4605 44.3241 24.6041L42.9275 25.1961C42.6347 25.3202 42.3186 25.0776 42.3627 24.7627L42.5731 23.2604C42.6241 22.8963 42.2061 22.6549 41.9162 22.8812L40.7204 23.8146C40.4698 24.0102 40.1016 23.8576 40.0627 23.5421L39.8771 22.0366C39.8321 21.6716 39.3659 21.5467 39.1445 21.8403L38.231 23.0513C38.0395 23.3051 37.6444 23.2531 37.5251 22.9584L36.9562 21.5522C36.8183 21.2113 36.3357 21.2113 36.1977 21.5522L35.6288 22.9584C35.5096 23.2531 35.1144 23.3051 34.923 23.0513L34.0095 21.8403C33.788 21.5467 33.3218 21.6716 33.2769 22.0366L33.0913 23.5421C33.0524 23.8576 32.6842 24.0102 32.4335 23.8146L31.2377 22.8812C30.9478 22.6549 30.5299 22.8963 30.5809 23.2604L30.7913 24.7627C30.8354 25.0776 30.5192 25.3202 30.2265 25.1961L28.8298 24.6041C28.4913 24.4605 28.15 24.8018 28.2935 25.1404L28.8856 26.537C29.0096 26.8297 28.767 27.1459 28.4522 27.1018L26.9499 26.8914C26.5857 26.8404 26.3444 27.2584 26.5707 27.5483L27.504 28.7441C27.6996 28.9947 27.5471 29.3629 27.2316 29.4018L25.726 29.5874C25.3611 29.6324 25.2361 30.0986 25.5297 30.32L26.7408 31.2335C26.9946 31.425 26.9426 31.8201 26.6478 31.9393L25.2416 32.5083C24.9007 32.6462 24.9007 33.1288 25.2416 33.2667L26.6478 33.8357C26.9426 33.9549 26.9946 34.35 26.7408 34.5415L25.5297 35.455C25.2361 35.6765 25.3611 36.1426 25.726 36.1876L27.2316 36.3732C27.5471 36.4121 27.6996 36.7803 27.504 37.0309L26.5707 38.2268C26.3444 38.5166 26.5857 38.9346 26.9499 38.8836L28.4522 38.6732C28.767 38.6291 29.0096 38.9453 28.8856 39.238L28.2935 40.6347C28.15 40.9732 28.4913 41.3145 28.8298 41.171L30.2265 40.5789C30.5192 40.4548 30.8354 40.6975 30.7913 41.0123L30.5809 42.5146C30.5299 42.8788 30.9478 43.1201 31.2377 42.8938L32.4335 41.9605C32.6842 41.7649 33.0524 41.9174 33.0913 42.2329L33.2769 43.7385C33.3218 44.1034 33.788 44.2283 34.0095 43.9348L34.923 42.7237C35.1144 42.4699 35.5096 42.5219 35.6288 42.8166L36.1977 44.2229ZM36.2787 29.3139C34.4712 29.3139 33.006 30.7791 33.006 32.5866C33.006 34.3941 34.4712 35.8593 36.2787 35.8593C38.0862 35.8593 39.5514 34.3941 39.5514 32.5866C39.5514 30.7791 38.0862 29.3139 36.2787 29.3139Z" fill="#1DC8F3"/>
<path fill-rule="evenodd" clip-rule="evenodd" d="M25.1181 33.1904C25.3383 32.9644 25.7121 32.9103 25.9934 33.1299L27.9101 34.6259C28.3747 34.9885 29.0446 34.6017 28.9629 34.0181L28.6256 31.6102C28.555 31.1056 29.0617 30.7167 29.5309 30.9156L31.7694 31.8645C32.3121 32.0945 32.8591 31.5475 32.629 31.0049L31.6801 28.7664C31.4812 28.2972 31.8701 27.7904 32.3747 27.8611L34.7826 28.1983C35.3663 28.2801 35.7531 27.6102 35.3904 27.1456L33.8944 25.2289C33.5809 24.8272 33.8254 24.237 34.3311 24.1747L36.7442 23.8772C37.3292 23.8051 37.5294 23.0579 37.0588 22.703L36.0422 21.9361L35.6286 22.9584C35.5093 23.2531 35.1142 23.3052 34.9228 23.0514L34.0092 21.8403C33.7878 21.5467 33.3216 21.6716 33.2766 22.0366L33.091 23.5422C33.0521 23.8577 32.6839 24.0102 32.4333 23.8146L31.2375 22.8812C30.9476 22.655 30.5296 22.8963 30.5806 23.2605L30.791 24.7628C30.8351 25.0776 30.519 25.3202 30.2262 25.1962L28.8296 24.6041C28.491 24.4606 28.1498 24.8019 28.2933 25.1404L28.8853 26.5371C29.0094 26.8298 28.7668 27.146 28.452 27.1019L26.9497 26.8915C26.5855 26.8405 26.3442 27.2584 26.5704 27.5483L27.5038 28.7441C27.6994 28.9948 27.5469 29.363 27.2313 29.4019L25.7258 29.5875C25.3608 29.6324 25.2359 30.0986 25.5295 30.3201L26.7405 31.2336C26.9944 31.425 26.9423 31.8202 26.6476 31.9394L25.2414 32.5083C24.9483 32.6269 24.9072 33.0003 25.1181 33.1904Z" fill="#7AA6DE"/>
</svg>
