<svg width="42" height="41" viewBox="0 0 42 41" fill="none" xmlns="http://www.w3.org/2000/svg">
<circle cx="20.6367" cy="20.4736" r="4" fill="#4785D3"/>
<path d="M20.1368 12.5321C20.4899 13.1437 21.3728 13.1437 21.726 12.5321L28.0827 1.52179C28.4359 0.91011 27.9945 0.145508 27.2882 0.145508H14.5746C13.8683 0.145508 13.4268 0.91011 13.78 1.52179L20.1368 12.5321Z" fill="#1DC8F3"/>
<path d="M20.1368 28.414C20.4899 27.8023 21.3728 27.8023 21.726 28.414L28.0827 39.4243C28.4359 40.0359 27.9945 40.8005 27.2882 40.8005H14.5746C13.8683 40.8005 13.4268 40.0359 13.78 39.4243L20.1368 28.414Z" fill="#1DC8F3"/>
<path d="M28.7303 21.2674C28.1186 20.9142 28.1186 20.0314 28.7303 19.6782L39.7406 13.3214C40.3523 12.9683 41.1169 13.4097 41.1169 14.116V26.8296C41.1169 27.5359 40.3523 27.9773 39.7406 27.6242L28.7303 21.2674Z" fill="#1DC8F3"/>
<path d="M12.8475 21.2674C13.4592 20.9142 13.4592 20.0314 12.8475 19.6782L1.83722 13.3214C1.22554 12.9683 0.460937 13.4097 0.460938 14.116V26.8296C0.460938 27.5359 1.22554 27.9773 1.83722 27.6242L12.8475 21.2674Z" fill="#1DC8F3"/>
</svg>
