<svg width="157" height="88" viewBox="0 0 157 88" fill="none" xmlns="http://www.w3.org/2000/svg">
<g filter="url(#filter0_d)">
<path fill-rule="evenodd" clip-rule="evenodd" d="M23.4763 15.1777C21.1551 15.1777 19.2734 16.9607 19.2734 19.1602V50.5482C19.2734 52.7476 21.1551 54.5306 23.4763 54.5306H35.9827V64.5531L45.5405 54.5306H133.535C135.857 54.5306 137.738 52.7476 137.738 50.5482V19.1602C137.738 16.9607 135.857 15.1777 133.535 15.1777H23.4763Z" fill="#A1F3D1"/>
</g>
<path d="M39.0858 38.7882C39.4731 38.7882 39.8045 38.7439 40.0798 38.6552C40.3598 38.5665 40.5861 38.4452 40.7588 38.2912C40.9361 38.1325 41.0645 37.9435 41.1438 37.7242C41.2278 37.5002 41.2698 37.2552 41.2698 36.9892C41.2698 36.7092 41.2278 36.4619 41.1438 36.2472C41.0645 36.0279 40.9361 35.8435 40.7588 35.6942C40.5861 35.5402 40.3621 35.4259 40.0868 35.3512C39.8115 35.2719 39.4801 35.2322 39.0928 35.2322H37.1398V38.7882H39.0858ZM39.0928 34.1542C39.7041 34.1542 40.2315 34.2219 40.6748 34.3572C41.1181 34.4879 41.4821 34.6745 41.7668 34.9172C42.0561 35.1552 42.2685 35.4399 42.4038 35.7712C42.5438 36.1025 42.6138 36.4642 42.6138 36.8562C42.6138 37.3182 42.5345 37.7359 42.3758 38.1092C42.2218 38.4779 41.9931 38.7929 41.6898 39.0542C41.3911 39.3155 41.0225 39.5162 40.5838 39.6562C40.1451 39.7962 39.6458 39.8662 39.0858 39.8662H35.7888V29.8352H42.2708V30.9062H37.1398V34.1542H39.0928ZM50.9385 38.7602L50.9315 39.8662H44.7505V29.8352H50.9315V30.9412H46.1085V34.2732H50.0145V35.3372H46.1085V38.7602H50.9385ZM59.9338 37.7942C60.0084 37.7942 60.0738 37.8245 60.1298 37.8852L60.6688 38.4662C60.2581 38.9422 59.7588 39.3132 59.1708 39.5792C58.5874 39.8452 57.8804 39.9782 57.0498 39.9782C56.3311 39.9782 55.6778 39.8545 55.0898 39.6072C54.5018 39.3552 54.0001 39.0052 53.5848 38.5572C53.1694 38.1045 52.8474 37.5632 52.6188 36.9332C52.3901 36.3032 52.2758 35.6102 52.2758 34.8542C52.2758 34.0982 52.3948 33.4052 52.6328 32.7752C52.8708 32.1452 53.2044 31.6039 53.6338 31.1512C54.0678 30.6985 54.5858 30.3485 55.1878 30.1012C55.7898 29.8492 56.4548 29.7232 57.1828 29.7232C57.8968 29.7232 58.5268 29.8375 59.0728 30.0662C59.6188 30.2949 60.0994 30.6052 60.5148 30.9972L60.0668 31.6202C60.0388 31.6669 60.0014 31.7065 59.9548 31.7392C59.9128 31.7672 59.8544 31.7812 59.7798 31.7812C59.6958 31.7812 59.5931 31.7369 59.4718 31.6482C59.3504 31.5549 59.1918 31.4522 58.9958 31.3402C58.7998 31.2282 58.5548 31.1279 58.2608 31.0392C57.9668 30.9459 57.6051 30.8992 57.1758 30.8992C56.6578 30.8992 56.1841 30.9902 55.7548 31.1722C55.3254 31.3495 54.9544 31.6085 54.6418 31.9492C54.3338 32.2899 54.0934 32.7052 53.9208 33.1952C53.7481 33.6852 53.6618 34.2382 53.6618 34.8542C53.6618 35.4795 53.7504 36.0372 53.9278 36.5272C54.1098 37.0172 54.3548 37.4325 54.6628 37.7732C54.9754 38.1092 55.3418 38.3659 55.7618 38.5432C56.1864 38.7205 56.6438 38.8092 57.1338 38.8092C57.4324 38.8092 57.7008 38.7929 57.9388 38.7602C58.1814 38.7229 58.4031 38.6669 58.6038 38.5922C58.8091 38.5175 58.9981 38.4242 59.1708 38.3122C59.3481 38.1955 59.5231 38.0579 59.6958 37.8992C59.7751 37.8292 59.8544 37.7942 59.9338 37.7942ZM70.2583 39.8662H68.8933V30.9062H63.8813V39.8662H62.5233V29.8352H70.2583V39.8662ZM80.6933 39.8662H79.3353V30.9062H76.0173C75.9519 32.1942 75.8633 33.3119 75.7513 34.2592C75.6439 35.2065 75.5109 36.0162 75.3523 36.6882C75.1983 37.3602 75.0209 37.9085 74.8203 38.3332C74.6243 38.7532 74.4073 39.0845 74.1693 39.3272C73.9359 39.5699 73.6839 39.7355 73.4133 39.8242C73.1426 39.9129 72.8556 39.9572 72.5523 39.9572C72.3003 39.9572 72.1066 39.9339 71.9713 39.8872C71.8359 39.8452 71.7683 39.7799 71.7683 39.6912V38.8302H72.2583C72.4449 38.8302 72.6293 38.7952 72.8113 38.7252C72.9933 38.6505 73.1683 38.5035 73.3363 38.2842C73.5043 38.0649 73.6629 37.7522 73.8123 37.3462C73.9616 36.9402 74.0969 36.4035 74.2183 35.7362C74.3396 35.0689 74.4446 34.2545 74.5333 33.2932C74.6219 32.3272 74.6896 31.1745 74.7363 29.8352H80.6933V39.8662ZM88.8495 36.1422L87.2745 32.0612C87.2278 31.9399 87.1788 31.7999 87.1275 31.6412C87.0761 31.4779 87.0271 31.3052 86.9805 31.1232C86.8825 31.5012 86.7821 31.8162 86.6795 32.0682L85.1045 36.1422H88.8495ZM91.6775 39.8662H90.6275C90.5061 39.8662 90.4081 39.8359 90.3335 39.7752C90.2588 39.7145 90.2028 39.6375 90.1655 39.5442L89.2275 37.1222H84.7265L83.7885 39.5442C83.7605 39.6282 83.7068 39.7029 83.6275 39.7682C83.5481 39.8335 83.4478 39.8662 83.3265 39.8662H82.2835L86.2945 29.8352H87.6665L91.6775 39.8662ZM99.076 30.9762H95.828V39.8662H94.477V30.9762H91.222V29.8352H99.076V30.9762ZM108.972 29.8352V39.8662H107.614V35.3022H102.203V39.8662H100.845V29.8352H102.203V34.3082H107.614V29.8352H108.972ZM121.084 34.8542C121.084 35.6055 120.965 36.2962 120.727 36.9262C120.489 37.5515 120.153 38.0905 119.719 38.5432C119.285 38.9959 118.762 39.3482 118.151 39.6002C117.544 39.8475 116.872 39.9712 116.135 39.9712C115.398 39.9712 114.726 39.8475 114.119 39.6002C113.512 39.3482 112.992 38.9959 112.558 38.5432C112.124 38.0905 111.788 37.5515 111.55 36.9262C111.312 36.2962 111.193 35.6055 111.193 34.8542C111.193 34.1029 111.312 33.4145 111.55 32.7892C111.788 32.1592 112.124 31.6179 112.558 31.1652C112.992 30.7079 113.512 30.3532 114.119 30.1012C114.726 29.8492 115.398 29.7232 116.135 29.7232C116.872 29.7232 117.544 29.8492 118.151 30.1012C118.762 30.3532 119.285 30.7079 119.719 31.1652C120.153 31.6179 120.489 32.1592 120.727 32.7892C120.965 33.4145 121.084 34.1029 121.084 34.8542ZM119.691 34.8542C119.691 34.2382 119.607 33.6852 119.439 33.1952C119.271 32.7052 119.033 32.2922 118.725 31.9562C118.417 31.6155 118.044 31.3542 117.605 31.1722C117.166 30.9902 116.676 30.8992 116.135 30.8992C115.598 30.8992 115.111 30.9902 114.672 31.1722C114.233 31.3542 113.858 31.6155 113.545 31.9562C113.237 32.2922 112.999 32.7052 112.831 33.1952C112.663 33.6852 112.579 34.2382 112.579 34.8542C112.579 35.4702 112.663 36.0232 112.831 36.5132C112.999 36.9985 113.237 37.4115 113.545 37.7522C113.858 38.0882 114.233 38.3472 114.672 38.5292C115.111 38.7065 115.598 38.7952 116.135 38.7952C116.676 38.7952 117.166 38.7065 117.605 38.5292C118.044 38.3472 118.417 38.0882 118.725 37.7522C119.033 37.4115 119.271 36.9985 119.439 36.5132C119.607 36.0232 119.691 35.4702 119.691 34.8542Z" fill="#21A46D"/>
<defs>
<filter id="filter0_d" x="0.273438" y="0.177734" width="156.465" height="87.3754" filterUnits="userSpaceOnUse" color-interpolation-filters="sRGB">
<feFlood flood-opacity="0" result="BackgroundImageFix"/>
<feColorMatrix in="SourceAlpha" type="matrix" values="0 0 0 0 0 0 0 0 0 0 0 0 0 0 0 0 0 0 127 0" result="hardAlpha"/>
<feOffset dy="4"/>
<feGaussianBlur stdDeviation="9.5"/>
<feComposite in2="hardAlpha" operator="out"/>
<feColorMatrix type="matrix" values="0 0 0 0 0 0 0 0 0 0 0 0 0 0 0 0 0 0 0.07 0"/>
<feBlend mode="normal" in2="BackgroundImageFix" result="effect1_dropShadow"/>
<feBlend mode="normal" in="SourceGraphic" in2="effect1_dropShadow" result="shape"/>
</filter>
</defs>
</svg>
