<svg width="33" height="34" viewBox="0 0 33 34" fill="none" xmlns="http://www.w3.org/2000/svg">
<g clip-path="url(#clip0)">
<path d="M33 17.0253C33 7.91187 25.6127 0.525146 16.5003 0.525146C7.38738 0.525146 0 7.91187 0 17.0253C0 26.1374 7.38738 33.5247 16.5003 33.5247C25.6127 33.5247 33 26.1374 33 17.0253Z" fill="#A5E2F1"/>
<path d="M19.5402 22.0698C19.4774 21.9778 19.357 21.9451 19.2564 21.9928C18.1439 22.5194 16.8812 23.0762 16.6333 23.1249C16.6271 23.1193 16.6172 23.1091 16.6042 23.0915C16.5706 23.0461 16.5543 22.9866 16.5543 22.9098C16.5543 22.2805 17.0292 20.3661 17.966 17.22C18.7558 14.5766 18.8471 14.0293 18.8471 13.8476C18.8471 13.5671 18.7397 13.33 18.5364 13.1621C18.3433 13.0028 18.0735 12.9221 17.7345 12.9221C17.1706 12.9221 16.5171 13.1362 15.7365 13.5766C14.9801 14.0035 14.1365 14.7266 13.2293 15.7258C13.1583 15.8041 13.1509 15.921 13.2115 16.0077C13.2721 16.0943 13.3846 16.1273 13.4824 16.0875C13.8009 15.9575 15.4014 15.3019 15.6347 15.1553C15.8258 15.0356 15.9912 14.9748 16.1263 14.9748C16.1311 14.9748 16.1353 14.975 16.1388 14.9752C16.1404 14.9842 16.142 14.9979 16.142 15.0175C16.142 15.1554 16.1136 15.3186 16.058 15.5019C14.694 19.921 14.031 22.63 14.031 23.7839C14.031 24.1911 14.1442 24.519 14.3674 24.7582C14.5948 25.0023 14.9016 25.1261 15.2792 25.1261C15.6816 25.1261 16.1713 24.958 16.7763 24.6122C17.3618 24.2776 18.2554 23.5417 19.5083 22.3621C19.5894 22.2857 19.603 22.1618 19.5402 22.0698Z" fill="white"/>
<path d="M19.4962 9.26693C19.2733 9.03878 18.988 8.9231 18.6485 8.9231C18.2258 8.9231 17.8576 9.09015 17.5543 9.41963C17.2559 9.74368 17.1046 10.1413 17.1046 10.6015C17.1046 10.965 17.216 11.2663 17.4358 11.4969C17.6586 11.731 17.94 11.8497 18.272 11.8497C18.6775 11.8497 19.0437 11.6732 19.3604 11.3253C19.6716 10.9834 19.8294 10.5816 19.8294 10.1308C19.8294 9.78437 19.7173 9.49376 19.4962 9.26693Z" fill="white"/>
</g>
<defs>
<clipPath id="clip0">
<rect width="33" height="33" fill="white" transform="translate(0 0.524414)"/>
</clipPath>
</defs>
</svg>
