<svg width="33" height="34" viewBox="0 0 33 34" fill="none" xmlns="http://www.w3.org/2000/svg">
<g clip-path="url(#clip0)">
<path d="M33 16.9018C33 7.78833 25.6127 0.401611 16.5003 0.401611C7.38738 0.401611 0 7.78833 0 16.9018C0 26.0139 7.38738 33.4012 16.5003 33.4012C25.6127 33.4012 33 26.0139 33 16.9018Z" fill="#91E3C0"/>
<path d="M19.5402 21.9462C19.4774 21.8543 19.357 21.8216 19.2564 21.8692C18.1439 22.3959 16.8811 22.9527 16.6333 23.0014C16.6271 22.9958 16.6172 22.9856 16.6042 22.968C16.5706 22.9225 16.5542 22.8631 16.5542 22.7863C16.5542 22.157 17.0292 20.2425 17.9659 17.0964C18.7558 14.4531 18.8471 13.9057 18.8471 13.724C18.8471 13.4435 18.7397 13.2065 18.5364 13.0385C18.3433 12.8793 18.0734 12.7986 17.7345 12.7986C17.1706 12.7986 16.517 13.0127 15.7365 13.4531C14.9801 13.88 14.1365 14.6031 13.2293 15.6023C13.1583 15.6805 13.1509 15.7975 13.2114 15.8841C13.2721 15.9708 13.3846 16.0038 13.4824 15.964C13.8008 15.834 15.4014 15.1783 15.6347 15.0318C15.8258 14.912 15.9911 14.8512 16.1263 14.8512C16.1311 14.8512 16.1353 14.8514 16.1388 14.8517C16.1404 14.8607 16.1419 14.8743 16.1419 14.8939C16.1419 15.0318 16.1136 15.1951 16.0579 15.3783C14.694 19.7974 14.031 22.5065 14.031 23.6604C14.031 24.0676 14.1442 24.3955 14.3674 24.6347C14.5948 24.8788 14.9016 25.0025 15.2792 25.0025C15.6816 25.0025 16.1713 24.8344 16.7763 24.4887C17.3618 24.1541 18.2554 23.4181 19.5083 22.2385C19.5894 22.1622 19.603 22.0382 19.5402 21.9462Z" fill="white"/>
<path d="M19.4962 9.14339C19.2733 8.91524 18.988 8.79956 18.6485 8.79956C18.2258 8.79956 17.8576 8.96661 17.5543 9.29609C17.2559 9.62014 17.1046 10.0178 17.1046 10.4779C17.1046 10.8415 17.216 11.1428 17.4358 11.3734C17.6586 11.6074 17.94 11.7261 18.272 11.7261C18.6775 11.7261 19.0437 11.5497 19.3604 11.2018C19.6716 10.8599 19.8294 10.458 19.8294 10.0072C19.8294 9.66083 19.7173 9.37023 19.4962 9.14339Z" fill="white"/>
</g>
<defs>
<clipPath id="clip0">
<rect width="33" height="33" fill="white" transform="translate(0 0.400879)"/>
</clipPath>
</defs>
</svg>
