<svg width="33" height="34" viewBox="0 0 33 34" fill="none" xmlns="http://www.w3.org/2000/svg">
<g clip-path="url(#clip0)">
<path d="M33 16.8007C33 7.68726 25.6127 0.300537 16.5003 0.300537C7.38738 0.300537 0 7.68726 0 16.8007C0 25.9128 7.38738 33.3001 16.5003 33.3001C25.6127 33.3001 33 25.9128 33 16.8007Z" fill="#F4E2B1"/>
<path d="M19.5402 21.8452C19.4774 21.7532 19.357 21.7205 19.2564 21.7681C18.1439 22.2948 16.8812 22.8516 16.6333 22.9003C16.6271 22.8947 16.6172 22.8845 16.6042 22.8669C16.5706 22.8214 16.5543 22.762 16.5543 22.6852C16.5543 22.0559 17.0292 20.1415 17.966 16.9954C18.7558 14.352 18.8471 13.8047 18.8471 13.623C18.8471 13.3424 18.7397 13.1054 18.5364 12.9375C18.3433 12.7782 18.0735 12.6975 17.7345 12.6975C17.1706 12.6975 16.5171 12.9116 15.7365 13.352C14.9801 13.7789 14.1365 14.502 13.2293 15.5012C13.1583 15.5794 13.1509 15.6964 13.2115 15.7831C13.2721 15.8697 13.3846 15.9027 13.4824 15.8629C13.8009 15.7329 15.4014 15.0773 15.6347 14.9307C15.8258 14.811 15.9912 14.7502 16.1263 14.7502C16.1311 14.7502 16.1353 14.7503 16.1388 14.7506C16.1404 14.7596 16.142 14.7732 16.142 14.7928C16.142 14.9307 16.1136 15.094 16.058 15.2772C14.694 19.6963 14.031 22.4054 14.031 23.5593C14.031 23.9665 14.1442 24.2944 14.3674 24.5336C14.5948 24.7777 14.9016 24.9014 15.2792 24.9014C15.6816 24.9014 16.1713 24.7334 16.7763 24.3876C17.3618 24.053 18.2554 23.3171 19.5083 22.1375C19.5894 22.0611 19.603 21.9371 19.5402 21.8452Z" fill="white"/>
<path d="M19.4962 9.04232C19.2733 8.81417 18.988 8.69849 18.6485 8.69849C18.2258 8.69849 17.8576 8.86554 17.5543 9.19502C17.2559 9.51907 17.1046 9.91671 17.1046 10.3769C17.1046 10.7404 17.216 11.0417 17.4358 11.2723C17.6586 11.5064 17.94 11.625 18.272 11.625C18.6775 11.625 19.0437 11.4486 19.3604 11.1007C19.6716 10.7588 19.8294 10.3569 19.8294 9.90617C19.8294 9.55976 19.7173 9.26915 19.4962 9.04232Z" fill="white"/>
</g>
<defs>
<clipPath id="clip0">
<rect width="33" height="33" fill="white" transform="translate(0 0.299805)"/>
</clipPath>
</defs>
</svg>
