<svg width="329" height="111" viewBox="0 0 329 111" fill="none" xmlns="http://www.w3.org/2000/svg">
<g filter="url(#filter0_d)">
<path fill-rule="evenodd" clip-rule="evenodd" d="M29.8772 16.1021C24.4222 16.1021 20 18.6355 20 21.7606V66.3586C20 69.4837 24.4222 72.0171 29.8772 72.0171H59.2683V86.2577L81.7302 72.0171H298.526C303.981 72.0171 308.404 69.4837 308.404 66.3586V21.7606C308.404 18.6355 303.981 16.1021 298.526 16.1021H29.8772Z" fill="#3180D3" fill-opacity="0.1" shape-rendering="crispEdges"/>
</g>
<path d="M47.9914 40.5393L43.9174 49.2613C43.7914 49.5366 43.6537 49.7653 43.5044 49.9473C43.3597 50.1246 43.2034 50.267 43.0354 50.3743C42.8674 50.477 42.6854 50.5493 42.4894 50.5913C42.2934 50.638 42.0834 50.6613 41.8594 50.6613C41.6074 50.6613 41.4137 50.638 41.2784 50.5913C41.143 50.5493 41.0754 50.484 41.0754 50.3953V49.5343H41.5654C41.682 49.5343 41.7987 49.5226 41.9154 49.4993C42.032 49.4713 42.144 49.4246 42.2514 49.3593C42.3587 49.294 42.4614 49.2076 42.5594 49.1003C42.6574 48.9883 42.746 48.8483 42.8254 48.6803L43.3154 47.6583L39.2834 40.5393H40.5504C40.6717 40.5393 40.7674 40.5696 40.8374 40.6303C40.9074 40.6863 40.968 40.761 41.0194 40.8543L43.4974 45.4043C43.67 45.7356 43.81 46.0716 43.9174 46.4123C43.9687 46.2443 44.0247 46.0763 44.0854 45.9083C44.1507 45.7403 44.223 45.5723 44.3024 45.4043L46.4094 40.8543C46.4467 40.775 46.5027 40.7026 46.5774 40.6373C46.6567 40.572 46.7547 40.5393 46.8714 40.5393H47.9914ZM61.5481 40.5393V50.5703H60.1901V46.0063H54.7791V50.5703H53.4211V40.5393H54.7791V45.0123H60.1901V40.5393H61.5481ZM69.7055 46.8463L68.1305 42.7653C68.0838 42.644 68.0348 42.504 67.9835 42.3453C67.9322 42.182 67.8832 42.0093 67.8365 41.8273C67.7385 42.2053 67.6382 42.5203 67.5355 42.7723L65.9605 46.8463H69.7055ZM72.5335 50.5703H71.4835C71.3622 50.5703 71.2642 50.54 71.1895 50.4793C71.1148 50.4186 71.0588 50.3416 71.0215 50.2483L70.0835 47.8263H65.5825L64.6445 50.2483C64.6165 50.3323 64.5628 50.407 64.4835 50.4723C64.4042 50.5376 64.3038 50.5703 64.1825 50.5703H63.1395L67.1505 40.5393H68.5225L72.5335 50.5703ZM80.9157 48.4983C80.9903 48.4983 81.0557 48.5286 81.1117 48.5893L81.6507 49.1703C81.24 49.6463 80.7407 50.0173 80.1527 50.2833C79.5693 50.5493 78.8623 50.6823 78.0317 50.6823C77.313 50.6823 76.6597 50.5586 76.0717 50.3113C75.4837 50.0593 74.982 49.7093 74.5667 49.2613C74.1513 48.8086 73.8293 48.2673 73.6007 47.6373C73.372 47.0073 73.2577 46.3143 73.2577 45.5583C73.2577 44.8023 73.3767 44.1093 73.6147 43.4793C73.8527 42.8493 74.1863 42.308 74.6157 41.8553C75.0497 41.4026 75.5677 41.0526 76.1697 40.8053C76.7717 40.5533 77.4367 40.4273 78.1647 40.4273C78.8787 40.4273 79.5087 40.5416 80.0547 40.7703C80.6007 40.999 81.0813 41.3093 81.4967 41.7013L81.0487 42.3243C81.0207 42.371 80.9833 42.4106 80.9367 42.4433C80.8947 42.4713 80.8363 42.4853 80.7617 42.4853C80.6777 42.4853 80.575 42.441 80.4537 42.3523C80.3323 42.259 80.1737 42.1563 79.9777 42.0443C79.7817 41.9323 79.5367 41.832 79.2427 41.7433C78.9487 41.65 78.587 41.6033 78.1577 41.6033C77.6397 41.6033 77.166 41.6943 76.7367 41.8763C76.3073 42.0536 75.9363 42.3126 75.6237 42.6533C75.3157 42.994 75.0753 43.4093 74.9027 43.8993C74.73 44.3893 74.6437 44.9423 74.6437 45.5583C74.6437 46.1836 74.7323 46.7413 74.9097 47.2313C75.0917 47.7213 75.3367 48.1366 75.6447 48.4773C75.9573 48.8133 76.3237 49.07 76.7437 49.2473C77.1683 49.4246 77.6257 49.5133 78.1157 49.5133C78.4143 49.5133 78.6827 49.497 78.9207 49.4643C79.1633 49.427 79.385 49.371 79.5857 49.2963C79.791 49.2216 79.98 49.1283 80.1527 49.0163C80.33 48.8996 80.505 48.762 80.6777 48.6033C80.757 48.5333 80.8363 48.4983 80.9157 48.4983ZM93.5553 49.4643L93.5483 50.5703H87.3673V40.5393H93.5483V41.6453H88.7253V44.9773H92.6313V46.0413H88.7253V49.4643H93.5553ZM102.551 48.4983C102.625 48.4983 102.691 48.5286 102.747 48.5893L103.286 49.1703C102.875 49.6463 102.376 50.0173 101.788 50.2833C101.204 50.5493 100.497 50.6823 99.6666 50.6823C98.9479 50.6823 98.2946 50.5586 97.7066 50.3113C97.1186 50.0593 96.6169 49.7093 96.2016 49.2613C95.7862 48.8086 95.4642 48.2673 95.2356 47.6373C95.0069 47.0073 94.8926 46.3143 94.8926 45.5583C94.8926 44.8023 95.0116 44.1093 95.2496 43.4793C95.4876 42.8493 95.8212 42.308 96.2506 41.8553C96.6846 41.4026 97.2026 41.0526 97.8046 40.8053C98.4066 40.5533 99.0716 40.4273 99.7996 40.4273C100.514 40.4273 101.144 40.5416 101.69 40.7703C102.236 40.999 102.716 41.3093 103.132 41.7013L102.684 42.3243C102.656 42.371 102.618 42.4106 102.572 42.4433C102.53 42.4713 102.471 42.4853 102.397 42.4853C102.313 42.4853 102.21 42.441 102.089 42.3523C101.967 42.259 101.809 42.1563 101.613 42.0443C101.417 41.9323 101.172 41.832 100.878 41.7433C100.584 41.65 100.222 41.6033 99.7926 41.6033C99.2746 41.6033 98.8009 41.6943 98.3716 41.8763C97.9422 42.0536 97.5712 42.3126 97.2586 42.6533C96.9506 42.994 96.7102 43.4093 96.5376 43.8993C96.3649 44.3893 96.2786 44.9423 96.2786 45.5583C96.2786 46.1836 96.3672 46.7413 96.5446 47.2313C96.7266 47.7213 96.9716 48.1366 97.2796 48.4773C97.5922 48.8133 97.9586 49.07 98.3786 49.2473C98.8032 49.4246 99.2606 49.5133 99.7506 49.5133C100.049 49.5133 100.318 49.497 100.556 49.4643C100.798 49.427 101.02 49.371 101.221 49.2963C101.426 49.2216 101.615 49.1283 101.788 49.0163C101.965 48.8996 102.14 48.762 102.313 48.6033C102.392 48.5333 102.471 48.4983 102.551 48.4983ZM111.923 41.6803H108.675V50.5703H107.324V41.6803H104.069V40.5393H111.923V41.6803ZM116.989 49.4923C117.376 49.4923 117.707 49.448 117.983 49.3593C118.263 49.2706 118.489 49.1493 118.662 48.9953C118.839 48.8366 118.967 48.6476 119.047 48.4283C119.131 48.2043 119.173 47.9593 119.173 47.6933C119.173 47.4133 119.131 47.166 119.047 46.9513C118.967 46.732 118.839 46.5476 118.662 46.3983C118.489 46.2443 118.265 46.13 117.99 46.0553C117.714 45.976 117.383 45.9363 116.996 45.9363H115.043V49.4923H116.989ZM116.996 44.8583C117.607 44.8583 118.134 44.926 118.578 45.0613C119.021 45.192 119.385 45.3786 119.67 45.6213C119.959 45.8593 120.171 46.144 120.307 46.4753C120.447 46.8066 120.517 47.1683 120.517 47.5603C120.517 48.0223 120.437 48.44 120.279 48.8133C120.125 49.182 119.896 49.497 119.593 49.7583C119.294 50.0196 118.925 50.2203 118.487 50.3603C118.048 50.5003 117.549 50.5703 116.989 50.5703H113.692V40.5393H115.043V44.8583H116.996ZM132.735 49.5063V41.6103H129.417C129.361 42.7536 129.282 43.757 129.179 44.6203C129.077 45.4836 128.955 46.2326 128.815 46.8673C128.675 47.502 128.519 48.034 128.346 48.4633C128.174 48.888 127.987 49.2356 127.786 49.5063H132.735ZM135.738 49.5063V52.6073C135.738 52.7286 135.699 52.8266 135.619 52.9013C135.54 52.976 135.435 53.0133 135.304 53.0133H134.499V50.5703H126.414V52.6073C126.414 52.7286 126.372 52.8266 126.288 52.9013C126.209 52.976 126.106 53.0133 125.98 53.0133H125.168V49.5063H126.19C126.335 49.4363 126.48 49.3243 126.624 49.1703C126.769 49.0116 126.907 48.7876 127.037 48.4983C127.173 48.2043 127.299 47.8356 127.415 47.3923C127.532 46.949 127.637 46.4076 127.73 45.7683C127.828 45.1243 127.912 44.373 127.982 43.5143C128.052 42.6556 128.106 41.664 128.143 40.5393H134.1V49.5063H135.738ZM146.659 45.5583C146.659 46.3096 146.54 47.0003 146.302 47.6303C146.064 48.2556 145.728 48.7946 145.294 49.2473C144.86 49.7 144.337 50.0523 143.726 50.3043C143.119 50.5516 142.447 50.6753 141.71 50.6753C140.973 50.6753 140.301 50.5516 139.694 50.3043C139.087 50.0523 138.567 49.7 138.133 49.2473C137.699 48.7946 137.363 48.2556 137.125 47.6303C136.887 47.0003 136.768 46.3096 136.768 45.5583C136.768 44.807 136.887 44.1186 137.125 43.4933C137.363 42.8633 137.699 42.322 138.133 41.8693C138.567 41.412 139.087 41.0573 139.694 40.8053C140.301 40.5533 140.973 40.4273 141.71 40.4273C142.447 40.4273 143.119 40.5533 143.726 40.8053C144.337 41.0573 144.86 41.412 145.294 41.8693C145.728 42.322 146.064 42.8633 146.302 43.4933C146.54 44.1186 146.659 44.807 146.659 45.5583ZM145.266 45.5583C145.266 44.9423 145.182 44.3893 145.014 43.8993C144.846 43.4093 144.608 42.9963 144.3 42.6603C143.992 42.3196 143.619 42.0583 143.18 41.8763C142.741 41.6943 142.251 41.6033 141.71 41.6033C141.173 41.6033 140.686 41.6943 140.247 41.8763C139.808 42.0583 139.433 42.3196 139.12 42.6603C138.812 42.9963 138.574 43.4093 138.406 43.8993C138.238 44.3893 138.154 44.9423 138.154 45.5583C138.154 46.1743 138.238 46.7273 138.406 47.2173C138.574 47.7026 138.812 48.1156 139.12 48.4563C139.433 48.7923 139.808 49.0513 140.247 49.2333C140.686 49.4106 141.173 49.4993 141.71 49.4993C142.251 49.4993 142.741 49.4106 143.18 49.2333C143.619 49.0513 143.992 48.7923 144.3 48.4563C144.608 48.1156 144.846 47.7026 145.014 47.2173C145.182 46.7273 145.266 46.1743 145.266 45.5583ZM155.924 48.4983C155.999 48.4983 156.064 48.5286 156.12 48.5893L156.659 49.1703C156.248 49.6463 155.749 50.0173 155.161 50.2833C154.578 50.5493 153.871 50.6823 153.04 50.6823C152.321 50.6823 151.668 50.5586 151.08 50.3113C150.492 50.0593 149.99 49.7093 149.575 49.2613C149.16 48.8086 148.838 48.2673 148.609 47.6373C148.38 47.0073 148.266 46.3143 148.266 45.5583C148.266 44.8023 148.385 44.1093 148.623 43.4793C148.861 42.8493 149.195 42.308 149.624 41.8553C150.058 41.4026 150.576 41.0526 151.178 40.8053C151.78 40.5533 152.445 40.4273 153.173 40.4273C153.887 40.4273 154.517 40.5416 155.063 40.7703C155.609 40.999 156.09 41.3093 156.505 41.7013L156.057 42.3243C156.029 42.371 155.992 42.4106 155.945 42.4433C155.903 42.4713 155.845 42.4853 155.77 42.4853C155.686 42.4853 155.583 42.441 155.462 42.3523C155.341 42.259 155.182 42.1563 154.986 42.0443C154.79 41.9323 154.545 41.832 154.251 41.7433C153.957 41.65 153.595 41.6033 153.166 41.6033C152.648 41.6033 152.174 41.6943 151.745 41.8763C151.316 42.0536 150.945 42.3126 150.632 42.6533C150.324 42.994 150.084 43.4093 149.911 43.8993C149.738 44.3893 149.652 44.9423 149.652 45.5583C149.652 46.1836 149.741 46.7413 149.918 47.2313C150.1 47.7213 150.345 48.1366 150.653 48.4773C150.966 48.8133 151.332 49.07 151.752 49.2473C152.177 49.4246 152.634 49.5133 153.124 49.5133C153.423 49.5133 153.691 49.497 153.929 49.4643C154.172 49.427 154.393 49.371 154.594 49.2963C154.799 49.2216 154.988 49.1283 155.161 49.0163C155.338 48.8996 155.513 48.762 155.686 48.6033C155.765 48.5333 155.845 48.4983 155.924 48.4983ZM165.296 41.6803H162.048V50.5703H160.697V41.6803H157.442V40.5393H165.296V41.6803ZM174.541 40.5393L170.467 49.2613C170.341 49.5366 170.203 49.7653 170.054 49.9473C169.909 50.1246 169.753 50.267 169.585 50.3743C169.417 50.477 169.235 50.5493 169.039 50.5913C168.843 50.638 168.633 50.6613 168.409 50.6613C168.157 50.6613 167.963 50.638 167.828 50.5913C167.693 50.5493 167.625 50.484 167.625 50.3953V49.5343H168.115C168.232 49.5343 168.348 49.5226 168.465 49.4993C168.582 49.4713 168.694 49.4246 168.801 49.3593C168.908 49.294 169.011 49.2076 169.109 49.1003C169.207 48.9883 169.296 48.8483 169.375 48.6803L169.865 47.6583L165.833 40.5393H167.1C167.221 40.5393 167.317 40.5696 167.387 40.6303C167.457 40.6863 167.518 40.761 167.569 40.8543L170.047 45.4043C170.22 45.7356 170.36 46.0716 170.467 46.4123C170.518 46.2443 170.574 46.0763 170.635 45.9083C170.7 45.7403 170.773 45.5723 170.852 45.4043L172.959 40.8543C172.996 40.775 173.052 40.7026 173.127 40.6373C173.206 40.572 173.304 40.5393 173.421 40.5393H174.541ZM183.844 50.5703H182.479V41.6103H177.467V50.5703H176.109V40.5393H183.844V50.5703ZM194.811 40.5393V50.5703H193.453V46.0063H188.042V50.5703H186.684V40.5393H188.042V45.0123H193.453V40.5393H194.811ZM206.923 45.5583C206.923 46.3096 206.804 47.0003 206.566 47.6303C206.328 48.2556 205.992 48.7946 205.558 49.2473C205.124 49.7 204.601 50.0523 203.99 50.3043C203.383 50.5516 202.711 50.6753 201.974 50.6753C201.237 50.6753 200.565 50.5516 199.958 50.3043C199.351 50.0523 198.831 49.7 198.397 49.2473C197.963 48.7946 197.627 48.2556 197.389 47.6303C197.151 47.0003 197.032 46.3096 197.032 45.5583C197.032 44.807 197.151 44.1186 197.389 43.4933C197.627 42.8633 197.963 42.322 198.397 41.8693C198.831 41.412 199.351 41.0573 199.958 40.8053C200.565 40.5533 201.237 40.4273 201.974 40.4273C202.711 40.4273 203.383 40.5533 203.99 40.8053C204.601 41.0573 205.124 41.412 205.558 41.8693C205.992 42.322 206.328 42.8633 206.566 43.4933C206.804 44.1186 206.923 44.807 206.923 45.5583ZM205.53 45.5583C205.53 44.9423 205.446 44.3893 205.278 43.8993C205.11 43.4093 204.872 42.9963 204.564 42.6603C204.256 42.3196 203.883 42.0583 203.444 41.8763C203.005 41.6943 202.515 41.6033 201.974 41.6033C201.437 41.6033 200.95 41.6943 200.511 41.8763C200.072 42.0583 199.697 42.3196 199.384 42.6603C199.076 42.9963 198.838 43.4093 198.67 43.8993C198.502 44.3893 198.418 44.9423 198.418 45.5583C198.418 46.1743 198.502 46.7273 198.67 47.2173C198.838 47.7026 199.076 48.1156 199.384 48.4563C199.697 48.7923 200.072 49.0513 200.511 49.2333C200.95 49.4106 201.437 49.4993 201.974 49.4993C202.515 49.4993 203.005 49.4106 203.444 49.2333C203.883 49.0513 204.256 48.7923 204.564 48.4563C204.872 48.1156 205.11 47.7026 205.278 47.2173C205.446 46.7273 205.53 46.1743 205.53 45.5583ZM215.334 49.4643L215.327 50.5703H209.146V40.5393H215.327V41.6453H210.504V44.9773H214.41V46.0413H210.504V49.4643H215.334ZM224.329 45.7403C224.716 45.7403 225.057 45.689 225.351 45.5863C225.65 45.4836 225.899 45.3413 226.1 45.1593C226.305 44.9726 226.459 44.751 226.562 44.4943C226.665 44.2376 226.716 43.9553 226.716 43.6473C226.716 43.008 226.518 42.5086 226.121 42.1493C225.729 41.79 225.132 41.6103 224.329 41.6103H222.719V45.7403H224.329ZM224.329 40.5393C224.964 40.5393 225.514 40.614 225.981 40.7633C226.452 40.908 226.842 41.1156 227.15 41.3863C227.458 41.657 227.687 41.9836 227.836 42.3663C227.99 42.749 228.067 43.176 228.067 43.6473C228.067 44.114 227.985 44.541 227.822 44.9283C227.659 45.3156 227.418 45.6493 227.101 45.9293C226.788 46.2093 226.399 46.4286 225.932 46.5873C225.47 46.7413 224.936 46.8183 224.329 46.8183H222.719V50.5703H221.368V40.5393H224.329ZM236.244 49.4643L236.237 50.5703H230.056V40.5393H236.237V41.6453H231.414V44.9773H235.32V46.0413H231.414V49.4643H236.244ZM250.925 40.5393V50.5703H238.416V40.5393H239.774V49.5063H243.974V40.5393H245.332V49.5063H249.56V40.5393H250.925ZM259.951 49.4643L259.944 50.5703H253.763V40.5393H259.944V41.6453H255.121V44.9773H259.027V46.0413H255.121V49.4643H259.951ZM270.25 40.5393V50.5703H268.892V46.0063H263.481V50.5703H262.123V40.5393H263.481V45.0123H268.892V40.5393H270.25ZM281.221 40.5393V50.5703H279.863V43.4443C279.863 43.2436 279.868 43.036 279.877 42.8213C279.887 42.602 279.908 42.371 279.94 42.1283C279.861 42.3383 279.777 42.5343 279.688 42.7163C279.6 42.8983 279.509 43.057 279.415 43.1923L274.711 50.1433C274.646 50.2506 274.562 50.3486 274.459 50.4373C274.357 50.526 274.238 50.5703 274.102 50.5703H273.094V40.5393H274.452V47.6723C274.452 47.873 274.448 48.083 274.438 48.3023C274.429 48.517 274.408 48.748 274.375 48.9953C274.455 48.7806 274.539 48.5823 274.627 48.4003C274.721 48.2183 274.812 48.0573 274.9 47.9173L279.604 40.9663C279.67 40.859 279.754 40.761 279.856 40.6723C279.959 40.5836 280.078 40.5393 280.213 40.5393H281.221ZM290.254 49.4643L290.247 50.5703H284.066V40.5393H290.247V41.6453H285.424V44.9773H289.33V46.0413H285.424V49.4643H290.254Z" fill="#6894C2"/>
<defs>
<filter id="filter0_d" x="0" y="0.102051" width="328.404" height="110.156" filterUnits="userSpaceOnUse" color-interpolation-filters="sRGB">
<feFlood flood-opacity="0" result="BackgroundImageFix"/>
<feColorMatrix in="SourceAlpha" type="matrix" values="0 0 0 0 0 0 0 0 0 0 0 0 0 0 0 0 0 0 127 0" result="hardAlpha"/>
<feOffset dy="4"/>
<feGaussianBlur stdDeviation="10"/>
<feComposite in2="hardAlpha" operator="out"/>
<feColorMatrix type="matrix" values="0 0 0 0 0 0 0 0 0 0 0 0 0 0 0 0 0 0 0.05 0"/>
<feBlend mode="normal" in2="BackgroundImageFix" result="effect1_dropShadow"/>
<feBlend mode="normal" in="SourceGraphic" in2="effect1_dropShadow" result="shape"/>
</filter>
</defs>
</svg>
